<svg width="500" height="500" xmlns="http://www.w3.org/2000/svg" xmlns:svg="http://www.w3.org/2000/svg">
 <!-- Created with SVG-edit - https://github.com/SVG-Edit/svgedit-->

 <g class="layer">
  <title>Layer 1</title>
  <g fill="red" id="svg_6" transform="matrix(0.238818, 0, 0, 0.272006, 195.609, 168.973)">
   <g id="svg_5" transform="matrix(2.31338, 0, 0, 2.29917, 118.078, 43.1181)">
    <path d="m-324.42151,-277.37224c0.05923,0.05079 0.11452,0.09766 0.17375,0.15235c0.06319,0.05078 0.12637,0.10547 0.19351,0.16015c0.38305,0.32422 0.71083,0.64844 0.98332,1.07032c0.04739,0.07031 0.09478,0.14062 0.14217,0.21093c1.17682,1.91407 1.41772,4.14844 0.90829,6.32032c-0.84116,3.28906 -3.08424,6.03515 -5.20489,8.63281c-0.21721,0.26172 -0.43045,0.53125 -0.6437,0.79687c-0.35937,0.45704 -0.73453,0.90235 -1.11759,1.34375c-0.233,0.26954 -0.46204,0.54688 -0.69109,0.82422c-0.11452,0.14063 -0.233,0.27735 -0.35542,0.41016c-0.05923,0.07031 -0.12242,0.14062 -0.1856,0.21094c-0.05529,0.0625 -0.11057,0.125 -0.16981,0.1914c-0.13427,0.16797 -0.13427,0.16797 -0.09478,0.34766c0.05529,0.20312 0.12243,0.39062 0.20536,0.58203c0.03159,0.07422 0.06319,0.15234 0.09478,0.23047c0.03159,0.08203 0.06713,0.16406 0.10267,0.24609c0.03555,0.08594 0.07108,0.17578 0.11057,0.26563c0.11453,0.27344 0.233,0.55078 0.35147,0.82812c0.03555,0.08594 0.07108,0.17188 0.11058,0.25782c0.6042,1.41406 1.26371,2.79687 1.93109,4.17578c0.61211,1.25781 1.20052,2.52734 1.78893,3.79687c0.03555,0.07813 0.03555,0.07813 0.07503,0.16406c0.07503,0.16016 0.15007,0.32032 0.2251,0.48438c0.03554,0.07812 0.03554,0.07812 0.07503,0.15625c0.11057,0.23828 0.2172,0.47656 0.32778,0.71094c0.48179,1.03515 0.97147,2.05859 1.47695,3.07812c0.21721,0.4375 0.43045,0.875 0.63581,1.32031c0.58446,1.26954 1.36638,2.5 2.40499,3.45704c0.41465,-0.20313 0.72663,-0.46485 1.06624,-0.77344c0.13032,-0.1211 0.26459,-0.23438 0.40281,-0.34375c0.23695,-0.19922 0.42255,-0.40625 0.60816,-0.64844c0.03555,-0.04687 0.07109,-0.08984 0.10663,-0.13672c0.10663,-0.13672 0.21325,-0.27734 0.31988,-0.41797c0.02764,-0.03906 0.05923,-0.07812 0.09083,-0.12109c1.67047,-2.25 2.87099,-5.07031 3.73583,-7.69922c-0.05528,-0.00391 -0.11057,-0.00391 -0.1698,-0.00781c-0.25274,-0.00391 -0.50944,-0.01172 -0.76613,-0.01953c-0.08687,-0.00391 -0.17375,-0.00391 -0.26064,-0.00782c-1.01096,-0.03125 -2.00219,-0.07812 -2.76831,-0.78906c-0.233,-0.24609 -0.52523,-0.57031 -0.52523,-0.91406c-0.06714,-0.03125 -0.06714,-0.03125 -0.13822,-0.06641c-0.15796,-0.08203 -0.15796,-0.08203 -0.30408,-0.22656c0.02764,-0.30469 0.11452,-0.57812 0.22115,-0.86719c0.01974,-0.05468 0.03554,-0.10937 0.05529,-0.16797c0.69109,-1.875 3.01314,-3.57031 4.80208,-4.39453c0.8293,-0.33593 1.99823,-0.38672 2.84334,-0.07812c0.77797,0.38281 1.35848,1.00781 1.64676,1.8164c0.44625,2.32422 -0.14216,4.94532 -1.18867,7.05469c-0.11847,0.23828 -0.2093,0.41797 -0.21325,0.69141c0.11847,0.33203 0.28039,0.64062 0.4502,0.95312c0.03554,0.06641 0.07108,0.13672 0.11057,0.20703c0.47784,0.98047 0.47784,0.98047 1.28345,1.66797c0.8609,0.16407 1.4967,-0.15234 2.20754,-0.57812c0.05528,-0.03516 0.11057,-0.06641 0.16586,-0.10156c0.75033,-0.45704 1.41377,-0.95704 2.04167,-1.56641c0.04738,-0.03906 0.09083,-0.08203 0.13822,-0.125c1.2795,-1.16016 2.18779,-2.97266 2.43658,-4.65625c0.01185,-0.07813 0.01185,-0.07813 0.02765,-0.15625c0.21325,-1.65625 0.11057,-3.63281 -0.22115,-5.26563c-0.09478,-0.47656 -0.12637,-0.94531 -0.13032,-1.42968c-0.00394,-0.06641 -0.00394,-0.13282 -0.0079,-0.20313c0.00395,-0.4375 0.07503,-0.76562 0.33172,-1.1289c0.47389,-0.45313 1.1097,-0.65625 1.7534,-0.6875c0.69899,0.01953 1.25186,0.26953 1.7297,0.76171c0.20535,0.23438 0.37516,0.48438 0.54497,0.75c0.03555,0.0586 0.07108,0.11719 0.11057,0.17969c1.1255,1.82031 1.84422,3.8125 2.33786,5.87891c0.0237,0.08203 0.0237,0.08203 0.04344,0.16797c0.09873,0.39062 0.13428,0.76172 0.13428,1.16406c0,0.0625 0,0.12109 0,0.18359c-0.0158,0.66016 -0.21721,1.14063 -0.61606,1.66797c-0.05529,0.07422 -0.10663,0.14453 -0.16192,0.21875c-0.40675,0.46485 -0.95568,0.76172 -1.57568,0.8125c-0.46599,0.01563 -0.84905,-0.05469 -1.28345,-0.23437c-0.0158,0.0625 -0.03555,0.12109 -0.05529,0.18359c-0.34752,0.95703 -1.00307,1.78516 -1.63492,2.57031c-0.05923,0.07422 -0.11452,0.14453 -0.17771,0.21875c-0.35146,0.4336 -0.72268,0.83985 -1.10574,1.2461c-0.15796,0.16797 -0.31197,0.33984 -0.46204,0.51562c-0.25274,0.28516 -0.53312,0.53125 -0.83326,0.77344c-0.04344,0.03516 -0.09083,0.07422 -0.14216,0.11328c-0.57656,0.44922 -1.19658,0.69922 -1.89556,0.91797c-0.05924,0.01953 -0.11847,0.03906 -0.17771,0.05469c-1.3032,0.39843 -2.67353,0.30859 -3.88985,-0.28907c-1.00307,-0.57812 -1.46511,-1.40625 -1.99034,-2.39062c-0.04344,-0.08203 -0.04344,-0.08203 -0.08688,-0.16406c-0.02764,-0.05078 -0.05134,-0.10157 -0.08293,-0.15235c-0.0237,-0.04687 -0.04738,-0.09375 -0.07108,-0.14062c-0.05134,-0.125 -0.05134,-0.125 -0.05134,-0.33985c-0.04739,0 -0.09873,0 -0.14611,0c-0.03159,0.08985 -0.03159,0.08985 -0.05924,0.17969c-0.10267,0.28516 -0.22904,0.55078 -0.36726,0.82031c-0.02764,0.05079 -0.05529,0.10547 -0.08293,0.16016c-0.08688,0.17188 -0.17771,0.34766 -0.26459,0.51953c-0.06319,0.11719 -0.12242,0.23828 -0.18166,0.35938c-0.35146,0.68359 -0.70688,1.37109 -1.07809,2.04687c-0.13822,0.25781 -0.26854,0.51172 -0.40281,0.76953c-0.92408,1.80078 -1.81657,3.46485 -3.8622,4.14063c-0.92408,0.21094 -1.80078,0.03515 -2.61034,-0.4336c-2.56691,-1.73828 -3.66475,-5.75781 -4.85737,-8.46875c-1.04651,-2.38281 -2.13251,-4.74218 -3.29748,-7.07421c-0.84511,-1.69141 -1.66652,-3.39454 -2.44053,-5.11719c-0.05134,0 -0.09873,0 -0.15007,0c-0.15401,0.16015 -0.30013,0.32422 -0.44625,0.49219c-0.04343,0.05078 -0.08687,0.10156 -0.13031,0.15234c-0.29223,0.33984 -0.58052,0.68359 -0.8688,1.03125c-0.24879,0.29687 -0.50548,0.58984 -0.76612,0.88281c-0.26064,0.29297 -0.51733,0.58985 -0.77402,0.88672c-0.38702,0.45313 -0.77798,0.90234 -1.16893,1.35156c-0.18561,0.21094 -0.37122,0.42578 -0.55288,0.63672c-0.07503,0.08203 -0.15007,0.16797 -0.22115,0.25391c-0.05529,0.0625 -0.05529,0.0625 -0.11057,0.125c-0.11058,0.1289 -0.22115,0.2539 -0.33173,0.3789c-0.03555,0.04297 -0.07503,0.08594 -0.11057,0.12891c-0.07503,0.08594 -0.14612,0.16797 -0.22115,0.25391c-0.18166,0.21093 -0.36727,0.42187 -0.54892,0.6289c-0.49759,0.57422 -0.99912,1.14453 -1.50066,1.71094c-0.12242,0.14453 -0.24879,0.28516 -0.37122,0.42578c-0.34752,0.39844 -0.69898,0.79297 -1.05835,1.17969c-0.2172,0.23828 -0.42255,0.47656 -0.62396,0.72656c-0.30013,0.36719 -0.62396,0.71094 -0.95172,1.05469c-0.2409,0.25 -0.46599,0.50391 -0.68714,0.77344c-0.29223,0.36328 -0.61211,0.69922 -0.93593,1.03906c-0.233,0.24609 -0.4581,0.49609 -0.67135,0.76172c-0.32776,0.40234 -0.68319,0.77344 -1.04256,1.14453c-0.27249,0.28516 -0.53708,0.57031 -0.79771,0.86328c-0.17771,0.20703 -0.36726,0.40234 -0.55287,0.60156c-0.31988,0.33594 -0.63581,0.67969 -0.94778,1.02344c-0.28829,0.3125 -0.58052,0.625 -0.87275,0.9375c-0.16981,0.18359 -0.33962,0.36328 -0.50944,0.54688c-0.06714,0.07421 -0.13427,0.14453 -0.2014,0.21875c-0.13427,0.14453 -0.26853,0.28515 -0.40281,0.42968c-0.06713,0.07422 -0.13427,0.14453 -0.19745,0.21485c-0.05134,0.05468 -0.05134,0.05468 -0.10267,0.10937c-0.18166,0.19531 -0.36332,0.39063 -0.54497,0.58203c-0.0395,0.04297 -0.07899,0.08594 -0.11847,0.12891c-0.07899,0.07812 -0.15402,0.16016 -0.22904,0.23828c-0.16192,0.17188 -0.31593,0.34766 -0.46205,0.53125c-0.04343,0.05078 -0.08687,0.10156 -0.13031,0.15625c-0.05134,0 -0.09873,0 -0.15007,0c-0.01579,0.03906 -0.03555,0.08203 -0.05923,0.12891c-0.09084,0.16406 -0.18561,0.28125 -0.31988,0.41797c-0.04738,0.04687 -0.09478,0.09375 -0.14216,0.14453c-0.05135,0.05468 -0.10268,0.10547 -0.15402,0.15625c-0.10663,0.11328 -0.21325,0.22265 -0.31987,0.33593c-0.08294,0.08204 -0.08294,0.08204 -0.16587,0.16797c-0.24484,0.25 -0.48179,0.50391 -0.72268,0.75782c-0.04739,0.04687 -0.09083,0.09375 -0.13822,0.14062c-0.22904,0.24219 -0.45809,0.48438 -0.68714,0.72656c-0.04344,0.04688 -0.09083,0.09375 -0.13822,0.14453c-0.08293,0.08985 -0.1698,0.17969 -0.25668,0.27344c-0.20536,0.21485 -0.4107,0.42969 -0.62791,0.63672c-0.16586,0.16797 -0.32776,0.33203 -0.48179,0.51172c-0.27249,0.31641 -0.57261,0.60547 -0.87275,0.89453c-0.16192,0.15625 -0.30803,0.32031 -0.45809,0.48828c-0.31593,0.36328 -0.6595,0.69141 -1.00702,1.02735c-0.14611,0.14453 -0.29223,0.28906 -0.43834,0.43359c-0.05134,0.04687 -0.09873,0.09375 -0.15007,0.14453c-0.26853,0.27344 -0.4265,0.46484 -0.4186,0.86328c0.00394,0.08203 0.00394,0.08203 0.01185,0.16406c0,0.0586 0.00394,0.1211 0.0079,0.17969c0.00395,0.14063 0.01185,0.28125 0.01974,0.42188c0.01185,0.24218 0.0237,0.48437 0.03159,0.72265c0.08293,1.90235 0.18956,3.71485 0.95963,5.48438c0.05134,0.13281 0.05134,0.13281 0.05134,0.27734c0.49363,-0.07422 0.82141,-0.21875 1.21237,-0.51172c0.60816,-0.43359 1.24001,-0.75 1.9153,-1.05859c0.11058,-0.05078 0.22115,-0.10156 0.32778,-0.15234c0.16192,-0.07813 0.32382,-0.15235 0.48574,-0.22657c0.8609,-0.40234 1.70995,-0.82422 2.5432,-1.28515c0.07503,-0.04297 0.15402,-0.08594 0.233,-0.12891c2.69722,-1.5 5.26808,-3.20312 7.76785,-4.99609c0.28038,-0.19922 0.56076,-0.40235 0.8451,-0.60157c0.05529,-0.03906 0.11058,-0.07812 0.16587,-0.11718c0.24484,-0.17578 0.48968,-0.34766 0.73453,-0.51953c0.6516,-0.44922 1.28345,-0.92579 1.9153,-1.40235c0.39096,-0.29297 0.78192,-0.58203 1.17682,-0.87109c0.47389,-0.34766 0.94384,-0.69922 1.41377,-1.05469c0.18166,-0.14062 0.36726,-0.28125 0.55287,-0.41797c0.07899,-0.0625 0.07899,-0.0625 0.16192,-0.125c0.10663,-0.07812 0.21325,-0.15625 0.31593,-0.23437c0.15401,-0.11719 0.30803,-0.23438 0.46204,-0.34766c0.08688,-0.06641 0.08688,-0.06641 0.17771,-0.13672c0.4502,-0.34765 0.86091,-0.71875 1.25976,-1.11719c0.06319,-0.0625 0.12242,-0.125 0.1856,-0.1875c0.36332,-0.35937 0.70293,-0.72265 1.01886,-1.12109c0.15402,-0.19141 0.31593,-0.375 0.4818,-0.55859c0.71083,-0.80078 1.2795,-1.63672 1.7376,-2.60157c0.06713,-0.14453 0.13821,-0.28515 0.2093,-0.42968c0.25274,-0.51953 0.43439,-1.03125 0.56076,-1.59375c0.01185,-0.0586 0.0237,-0.11328 0.03555,-0.17188c0.10663,-0.52734 0.07503,-1.02344 -0.13427,-1.52734c-0.0237,-0.0586 -0.04739,-0.11719 -0.07108,-0.17969c-0.2251,-0.38672 -0.6595,-0.49219 -1.05836,-0.64844c-0.73848,-0.30078 -1.31109,-0.64843 -1.89951,-1.18359c-0.11846,-0.10547 -0.24089,-0.20703 -0.36726,-0.30469c-0.22115,-0.28125 -0.28433,-0.5625 -0.29618,-0.91797c0.08688,-0.28906 0.18166,-0.40234 0.41861,-0.59765c0.50943,-0.26172 1.01491,-0.29688 1.57963,-0.29688c0.10267,0 0.10267,0 0.2093,0c0.47389,0.00781 0.88459,0.07422 1.33083,0.23828c0.22115,0.08203 0.4344,0.12891 0.66345,0.17188c0.73454,0.17969 1.27161,0.6289 1.81263,1.1289c0.16981,0.16016 0.16981,0.16016 0.37122,0.3086c0.08293,0.0664 0.08293,0.0664 0.16192,0.13672c0,0.04687 0,0.09375 0,0.14453c0.05134,0 0.09872,0 0.15006,0c0.18956,0.17578 0.35147,0.3789 0.51339,0.57812c0.04738,0.05078 0.09083,0.10547 0.13822,0.16016c0.4107,0.52344 0.57261,1.08984 0.74638,1.72266c0.01579,0.0625 0.03554,0.12109 0.05528,0.18359c0.04344,0.15625 0.07109,0.30859 0.09084,0.46875c0.01185,0.06641 0.01974,0.13281 0.03159,0.20312c0.08688,1.21485 -0.53708,2.83594 -1.30715,3.77344c-0.12242,0.13281 -0.24879,0.26563 -0.37516,0.39453c-0.18561,0.19141 -0.35542,0.39063 -0.52128,0.59375c-0.27644,0.33985 -0.57656,0.64453 -0.89249,0.94922c-0.20536,0.20313 -0.39491,0.41797 -0.58052,0.64063c-0.10663,0.10937 -0.10663,0.10937 -0.32778,0.18359c-0.01974,0.03906 -0.03949,0.08203 -0.06319,0.12109c-0.12242,0.23829 -0.31593,0.39844 -0.51733,0.57422c-0.05923,0.05469 -0.05923,0.05469 -0.11847,0.10938c-0.19745,0.17578 -0.37911,0.32422 -0.6279,0.42578c0,0.04687 0,0.09375 0,0.14453c-0.11057,0.09766 -0.2251,0.19141 -0.34357,0.28125c-0.32778,0.25781 -0.63976,0.52344 -0.94384,0.80469c-0.34752,0.32031 -0.70689,0.6289 -1.08205,0.92187c-0.1856,0.14844 -0.37122,0.30078 -0.55287,0.45703c-0.76218,0.64063 -1.55595,1.22657 -2.36945,1.80079c-0.35147,0.24609 -0.69504,0.49609 -1.04256,0.75c-0.58052,0.42578 -1.17288,0.83593 -1.77314,1.23437c-0.30803,0.21094 -0.61606,0.42188 -0.92014,0.64063c-0.07503,0.05468 -0.07503,0.05468 -0.15401,0.11328c-0.03949,0.02734 -0.07503,0.05468 -0.11847,0.08593c-0.30013,0.21875 -0.60816,0.42969 -0.92408,0.63672c-0.09873,0.0625 -0.19351,0.125 -0.29223,0.1875c-0.04739,0.03516 -0.09873,0.06641 -0.15007,0.09766c-0.24879,0.16406 -0.49759,0.32812 -0.74638,0.49219c-0.15402,0.10156 -0.30408,0.19922 -0.4581,0.30078c-0.10267,0.0664 -0.2014,0.13281 -0.30408,0.19922c-0.61211,0.40234 -1.22422,0.80078 -1.84422,1.19531c-0.62,0.39453 -1.23606,0.79297 -1.85606,1.19141c-0.05924,0.03906 -0.11847,0.07812 -0.18166,0.11718c-1.18867,0.76953 -2.3734,1.54688 -3.52653,2.36328c-0.38306,0.27344 -0.77797,0.53125 -1.17288,0.78516c-0.2093,0.13672 -0.41466,0.27734 -0.62396,0.41797c-1.33083,0.91016 -3.02105,1.56641 -4.67176,1.44141c-0.77403,-0.14844 -1.48485,-0.54297 -1.94295,-1.1836c-0.06713,-0.10937 -0.13031,-0.22265 -0.1935,-0.33984c-0.03159,-0.0586 -0.06319,-0.11719 -0.09873,-0.17969c-0.80956,-1.625 -0.81351,-3.54687 -0.87275,-5.32031c-0.00395,-0.16797 -0.01185,-0.33985 -0.01579,-0.51172c-0.0158,-0.41016 -0.02765,-0.82031 -0.04344,-1.23047c-0.12243,0.12109 -0.2488,0.24219 -0.37122,0.36328c-0.05134,0.05078 -0.05134,0.05078 -0.10267,0.10156c-0.20536,0.19532 -0.39491,0.39844 -0.58447,0.61329c-0.26853,0.30468 -0.55287,0.59375 -0.84115,0.8789c-0.05529,0.05078 -0.10663,0.10156 -0.16192,0.15625c-0.11057,0.10938 -0.22115,0.21875 -0.33172,0.32813c-0.16981,0.16797 -0.33962,0.33593 -0.50944,0.5039c-0.10663,0.10547 -0.21324,0.21094 -0.32382,0.32032c-0.05134,0.05078 -0.09873,0.10156 -0.15401,0.15234c-0.04739,0.04687 -0.09084,0.08984 -0.14217,0.14062c-0.03949,0.03907 -0.08293,0.07813 -0.12242,0.1211c-0.10663,0.08594 -0.10663,0.08594 -0.25669,0.08594c-0.01579,0.04296 -0.03159,0.08203 -0.04738,0.125c-0.13032,0.21875 -0.29618,0.35546 -0.48969,0.52343c-0.3949,0.34766 -0.77007,0.71094 -1.14128,1.08594c-0.09873,0.10156 -0.2014,0.19922 -0.30803,0.29688c-0.04739,0 -0.09478,0 -0.14611,0c-0.0237,0.07031 -0.04739,0.14062 -0.07503,0.21484c-0.11452,0.11328 -0.11452,0.11328 -0.26064,0.23047c-0.21721,0.18359 -0.42255,0.36719 -0.62001,0.5664c-0.23694,0.23829 -0.48573,0.45704 -0.74242,0.67188c-0.13822,0.12109 -0.26854,0.25 -0.39886,0.37891c-0.16586,0.16796 -0.33567,0.32421 -0.51733,0.47656c-0.30014,0.2539 -0.59236,0.52344 -0.88064,0.79297c-0.32778,0.30078 -0.6595,0.60156 -0.99913,0.89062c-0.1856,0.15625 -0.36726,0.32031 -0.54891,0.48438c-0.27644,0.25 -0.55683,0.49609 -0.84511,0.73828c-0.17376,0.15234 -0.34358,0.30469 -0.51338,0.45703c-0.26854,0.23437 -0.53708,0.46875 -0.80957,0.70312c-0.1698,0.14454 -0.33567,0.29688 -0.50153,0.44532c-0.24879,0.22265 -0.50548,0.43359 -0.76612,0.64062c-0.44625,0.35547 -0.8609,0.74219 -1.27951,1.12891c-0.22509,0.21094 -0.45809,0.41406 -0.69109,0.61328c-0.31197,0.26562 -0.61606,0.54297 -0.92014,0.82031c-0.17771,0.16016 -0.35541,0.32031 -0.53708,0.48438c-1.05441,0.94922 -1.05441,0.94922 -2.07721,1.9375c-0.26065,0.25781 -0.52524,0.5 -0.80957,0.73828c-0.45019,0.39453 -0.86484,0.82422 -1.25975,1.27344c-0.2093,0.24218 -0.43045,0.47265 -0.6516,0.70703c-0.19745,0.21484 -0.39096,0.42968 -0.58052,0.64843c-0.56867,0.62891 -1.17682,0.74219 -2.01403,0.82032c-0.52127,0.02734 -0.98727,0.01953 -1.41376,-0.30078c-0.28433,-0.29297 -0.34358,-0.50391 -0.35937,-0.89844c0.01185,-0.45313 0.05528,-0.84375 0.38701,-1.17969c0.19351,-0.15625 0.38701,-0.29687 0.59236,-0.43359c0.07108,-0.05078 0.14216,-0.09766 0.21324,-0.14844c0.15796,-0.10547 0.31593,-0.21484 0.47389,-0.32031c0.47784,-0.32422 0.94778,-0.66407 1.41773,-1c0.11847,-0.08203 0.23694,-0.16797 0.35146,-0.25c0.72663,-0.51563 1.43352,-1.04688 2.12461,-1.60547c0.26853,-0.21875 0.54102,-0.42969 0.8135,-0.64063c0.36727,-0.28125 0.72663,-0.5664 1.086,-0.85547c0.26065,-0.21093 0.52128,-0.42187 0.78192,-0.6289c0.07503,-0.0625 0.07503,-0.0625 0.15401,-0.1211c0.2488,-0.20312 0.50154,-0.40234 0.75033,-0.60156c0.92804,-0.74219 1.85212,-1.48437 2.76041,-2.24219c0.30803,-0.25781 0.62396,-0.51171 0.93593,-0.76171c0.22904,-0.1875 0.4581,-0.375 0.68714,-0.56641c0.29223,-0.24609 0.58446,-0.48828 0.88064,-0.72656c1.05836,-0.84766 2.09302,-1.72266 3.10003,-2.62891c0.15007,-0.13672 0.30408,-0.26953 0.46204,-0.40234c0.30408,-0.26172 0.60026,-0.53125 0.89644,-0.80469c0.24089,-0.21484 0.48179,-0.42969 0.72268,-0.64453c0.6595,-0.58203 1.3111,-1.17188 1.9311,-1.79688c0.12637,-0.11718 0.24879,-0.22656 0.38306,-0.33593c0.49363,-0.42188 0.94778,-0.88672 1.40982,-1.33985c0.10267,-0.10156 0.20535,-0.20312 0.30802,-0.30469c0.21325,-0.20703 0.42651,-0.41796 0.63976,-0.6289c0.27249,-0.26953 0.54892,-0.53906 0.82141,-0.8086c0.21324,-0.21093 0.42255,-0.41796 0.6358,-0.625c0.09873,-0.10156 0.2014,-0.19921 0.30408,-0.29687c0.13822,-0.14063 0.28039,-0.28125 0.42255,-0.41797c0.05924,-0.0625 0.05924,-0.0625 0.12637,-0.125c0.15796,-0.15625 0.30803,-0.3125 0.4423,-0.49219c0.04344,-0.05859 0.04344,-0.05859 0.09084,-0.11718c0.05134,0 0.09872,0 0.15006,0c-0.00394,-0.07032 -0.00394,-0.14454 -0.00394,-0.21875c-0.00395,-0.69532 -0.00395,-1.38672 -0.00395,-2.08204c-0.00394,-0.35546 -0.00394,-0.71484 -0.00394,-1.07031c-0.00791,-1.82812 0.02369,-3.64062 0.15796,-5.46484c0.00394,-0.07813 0.01184,-0.15625 0.01579,-0.23438c0.03159,-0.43359 0.07108,-0.86718 0.11058,-1.30078c0.0079,-0.0625 0.01184,-0.1289 0.01974,-0.1914c0.43834,-4.51563 1.42957,-8.96094 2.87098,-13.26954c0.02764,-0.07812 0.02764,-0.07812 0.05134,-0.15625c0.58841,-1.74609 1.28345,-3.4414 2.01008,-5.1289c0.03159,-0.07813 0.03159,-0.07813 0.06714,-0.15625c1.10574,-2.58203 2.36945,-5.01953 3.90564,-7.37891c0.04344,-0.0664 0.04344,-0.0664 0.09083,-0.13672c0.67925,-1.04297 1.43747,-2.03125 2.23124,-2.99218c0.17771,-0.21485 0.35146,-0.4375 0.52523,-0.65625c0.29223,-0.36719 0.59235,-0.73047 0.89249,-1.09375c0.11057,-0.12891 0.2172,-0.26172 0.32778,-0.39063c0.32382,-0.39453 0.65555,-0.77734 1.00307,-1.15234c0.13821,-0.15235 0.27643,-0.30469 0.41465,-0.46094c0.08293,-0.09375 0.16981,-0.19141 0.25669,-0.28906c0.06319,-0.07032 0.06319,-0.07032 0.12637,-0.14063c0.51733,-0.57812 1.0702,-1.11719 1.62307,-1.66015c0.16981,-0.16797 0.33567,-0.33204 0.50548,-0.5c0.11057,-0.10938 0.2172,-0.21485 0.32778,-0.32422c0.05134,-0.04688 0.09872,-0.09766 0.15006,-0.14844c0.32778,-0.32031 0.6674,-0.625 1.01887,-0.91797c0.03949,-0.03516 0.07898,-0.06641 0.11846,-0.10156c1.84028,-1.55469 3.77533,-3.03125 5.99076,-4.02735c0.08688,-0.03906 0.17376,-0.07812 0.26459,-0.12109c3.33303,-1.45312 8.00479,-1.86328 10.97056,0.62109zm-17.22985,5.26954c-0.17376,0.14843 -0.35542,0.28906 -0.53708,0.42968c-0.33962,0.27344 -0.6437,0.56641 -0.94778,0.875c-0.15796,0.15235 -0.31593,0.29297 -0.4818,0.42969c-0.25274,0.21094 -0.46598,0.44531 -0.67924,0.69141c-0.19745,0.22656 -0.41466,0.42968 -0.63185,0.63281c-0.36726,0.35547 -0.69504,0.72266 -1.01886,1.11719c-0.14217,0.17578 -0.29224,0.33984 -0.4423,0.50781c-0.39491,0.42969 -0.75428,0.89062 -1.11365,1.35156c-0.03949,0.05078 -0.07898,0.09766 -0.11846,0.14844c-1.40193,1.77734 -2.67353,3.64844 -3.85826,5.57422c-0.05923,0.09765 -0.05923,0.09765 -0.11847,0.19531c-3.22639,5.26953 -5.37469,10.9375 -7.70466,23.69531c-0.0079,0.05469 -0.01185,0.11328 -0.0158,0.17188c-0.04343,0.42969 -0.07898,0.85937 -0.11057,1.28906c-0.0079,0.12891 -0.0079,0.12891 -0.0158,0.26172c-0.11846,1.60937 -0.15006,3.21094 -0.13821,4.82422c0,0.30078 0,0.60547 0,0.90625c0.00394,0.58594 0.00394,1.17187 0.0079,1.76172c0.08293,-0.07032 0.16586,-0.14063 0.24879,-0.21094c0.04739,-0.03516 0.09084,-0.07422 0.13822,-0.11328c0.15401,-0.13281 0.28433,-0.27344 0.4186,-0.42578c0.30803,-0.33985 0.62,-0.67188 0.93988,-1.00391c0.10267,-0.10547 0.20536,-0.21484 0.30803,-0.32031c0.07503,-0.08203 0.07503,-0.08203 0.15401,-0.16016c0.65555,-0.6875 1.30715,-1.3789 1.9548,-2.07031c0.18165,-0.19531 0.36331,-0.38672 0.54497,-0.58203c0.03554,-0.03906 0.07108,-0.07813 0.10663,-0.11719c0.19745,-0.20703 0.39096,-0.41406 0.58841,-0.62109c0.36726,-0.39063 0.73453,-0.77735 1.086,-1.17578c0.22509,-0.25 0.45415,-0.4961 0.68319,-0.73829c0.28433,-0.30078 0.56077,-0.60156 0.8372,-0.90625c0.11452,-0.125 0.233,-0.2539 0.35147,-0.3789c0.05923,-0.0625 0.11847,-0.12891 0.18166,-0.19531c0.08293,-0.08985 0.08293,-0.08985 0.16981,-0.17969c0.13821,-0.13281 0.13821,-0.13281 0.12242,-0.29297c0.04738,0 0.09478,0 0.14611,0c0.09873,-0.10547 0.18956,-0.21875 0.28038,-0.33203c0.27644,-0.34375 0.56473,-0.66406 0.8688,-0.98438c0.08293,-0.08593 0.16586,-0.17187 0.24879,-0.26172c0.0395,-0.03906 0.07899,-0.08203 0.11847,-0.12109c0.28038,-0.30078 0.54892,-0.60937 0.81746,-0.91797c0.07503,-0.08984 0.15007,-0.17578 0.2251,-0.26172c0.03555,-0.04297 0.07503,-0.08593 0.11452,-0.13281c0.2488,-0.28516 0.50154,-0.5625 0.76218,-0.83984c0.31197,-0.33203 0.6042,-0.67578 0.89249,-1.02735c0.15796,-0.1875 0.32382,-0.37109 0.49363,-0.55078c0.22904,-0.25 0.44625,-0.5 0.6595,-0.76172c0.2172,-0.26172 0.43439,-0.51172 0.66345,-0.76172c0.29223,-0.3125 0.56076,-0.63671 0.83325,-0.96484c0.14612,-0.17969 0.30014,-0.34766 0.45415,-0.51953c0.26854,-0.29297 0.52128,-0.59766 0.77403,-0.90234c0.20535,-0.2461 0.41465,-0.48829 0.62396,-0.72657c0.31987,-0.36328 0.63185,-0.73047 0.93987,-1.10547c0.18166,-0.21875 -6.70554,6.5625 0.56077,-0.65625c7.26631,-7.21875 0.54892,-0.64843 0.80956,-0.98437c0.33173,-0.41797 0.67529,-0.81641 1.03071,-1.21484c0.27249,-0.30469 0.53708,-0.61719 0.78982,-0.9375c0.15007,-0.1836 0.29618,-0.36329 0.44625,-0.54297c0.61211,-0.73438 1.22422,-1.46875 1.81657,-2.21875c0.25669,-0.32032 0.51733,-0.63672 0.77798,-0.95313c0.36331,-0.43359 0.71083,-0.875 1.0465,-1.32422c0.17376,-0.23437 0.35147,-0.46093 0.54497,-0.67968c0.36727,-0.39063 0.36727,-0.39063 0.52524,-0.87891c-0.03555,-0.17969 -0.03555,-0.17969 -0.10268,-0.35156c-0.09872,-0.29688 -0.07108,-0.59375 -0.05923,-0.90235c0.07503,-0.02343 0.14611,-0.04687 0.22115,-0.07031c0.15007,0.08984 0.30013,0.1875 0.4423,0.28906c0.09873,0.04688 0.19745,0.09766 0.29618,0.14453c2.85123,-3.51562 6.00655,-8.01171 5.5761,-12.71484c-0.15401,-1.29297 -0.67529,-2.625 -1.72969,-3.46484c-0.82141,-0.58594 -1.7297,-0.9336 -2.74462,-1.0625c-0.05923,-0.00782 -0.12242,-0.01563 -0.1856,-0.02344c-4.17418,-0.45703 -7.86263,1.73047 -10.88762,4.34766zm43.30958,17.84375c0.0237,0.33984 0.0237,0.33984 0.18166,0.6289c0.16981,0.2461 0.2014,0.50391 0.25668,0.79688c0.0237,0.125 0.05135,0.25 0.07503,0.375c0.01185,0.0625 0.02765,0.125 0.0395,0.1914c0.04343,0.21094 0.09872,0.41797 0.15006,0.62891c0.16587,0.63672 0.25274,1.27344 0.31988,1.92578c0.04344,0.38672 0.08293,0.69922 0.30408,1.03125c0.17771,0.14453 0.17771,0.14453 0.36726,0.21484c0.07503,-0.03515 0.07503,-0.03515 0.14611,-0.07031c-0.04738,-0.07422 -0.09478,-0.14453 -0.14611,-0.21875c-0.03554,-0.17969 -0.03554,-0.17969 -0.06319,-0.39453c-0.01185,-0.08203 -0.01974,-0.16016 -0.03159,-0.24219c-0.01185,-0.08593 -0.0237,-0.17187 -0.03554,-0.25781c-0.22905,-1.625 -0.72663,-3.14844 -1.48881,-4.60937c-0.0237,0 -0.04739,0 -0.07503,0zm-17.28908,2.51562c-0.91619,0.82031 -0.91619,0.82031 -1.47696,1.75781c0.12637,0.01563 0.12637,0.01563 0.25669,0.03516c1.20446,0.17187 2.12856,0.59375 3.12767,1.26953c0.28433,-1.03906 0.21324,-2.10937 -0.07503,-3.13672c-0.07108,-0.26172 -0.11058,-0.50781 -0.14611,-0.77734c-0.63185,0 -1.25976,0.4414 -1.68626,0.85156zm0,0" fill="black" fill-rule="nonzero" id="svg_7" stroke-dasharray="630.20813" stroke-linecap="round" stroke-width="10">
     <animate attributeName="stroke-dashoffset" begin="0" dur="10" end="10" from="630.20813" repeatCount="1" to="0"/>
     <animate attributeName="stroke-dashoffset" begin="0" dur="10" end="10" from="630.20813" repeatCount="1" to="0"/>
     <animate attributeName="stroke-dashoffset" begin="0" dur="10" from="630.20813" repeatCount="100" to="0"/>
     <animate attributeName="stroke-dashoffset" begin="0" dur="10" from="630.20813" repeatCount="100" to="0"/>
     <animate attributeName="stroke-dashoffset" begin="0" dur="10" from="630.20813" repeatCount="100" to="0"/>
     <animate attributeName="stroke-dashoffset" begin="0" dur="10" from="630.20813" repeatCount="100" to="0"/>
     <animate attributeName="stroke-dashoffset" begin="0" dur="10" from="630.20813" repeatCount="100" to="0"/>
     <animate attributeName="fill" begin="0" dur="10" end="0" repeatCount="100" values="green;red"/>
     <animate attributeName="fill" begin="0" dur="10" end="0" repeatCount="100" values="green;red"/>
     <animate attributeName="fill" begin="0" dur="10" end="0" repeatCount="100" values="green;red"/>
     <animate attributeName="fill" begin="0" dur="10" end="0" repeatCount="100" values="green;red"/>
     <animate attributeName="fill" begin="0" dur="10" end="0" repeatCount="100" values="green;red"/>
     <animate attributeName="fill" begin="0" dur="10" end="0" repeatCount="100" values="green;red"/>
     <animate attributeName="fill" begin="0" dur="10" end="1" repeatCount="100" values="green;red"/>
     <animate attributeName="fill" begin="0" dur="10" repeatCount="10" values="green;red"/>
     <animate attributeName="fill" begin="0" dur="10" repeatCount="10" values="green;red"/>
    </path>
    <path d="m-304.62361,-219.27458c0.50391,0.23438 0.85547,0.62109 1.23828,1.01563c0.0625,0.05859 0.12891,0.12109 0.19531,0.17968c0.30469,0.32813 0.53125,0.70703 0.75391,1.09375c0.29297,0.50391 0.58984,0.94532 0.99219,1.3711c0.52734,0.5625 0.95312,1.1875 1.35156,1.83984c0.05469,0.08594 0.05469,0.08594 0.10547,0.17578c0.52734,0.87891 0.82812,1.77735 1.0625,2.76563c0.02734,0.10156 0.05078,0.20703 0.07812,0.30859c0.15235,0.61719 0.27735,1.20703 0.28125,1.84375c0.00391,0.05078 0.00391,0.10156 0.00782,0.15625c0.0039,0.75 -0.30078,1.36719 -0.65625,2.01172c-0.03516,0.07031 -0.07032,0.14062 -0.10938,0.21094c-0.6289,1.15234 -1.74609,1.53906 -2.95312,1.91015c-1.16016,0.32813 -2.30469,0.3125 -3.44141,-0.10547c-0.0625,-0.02343 -0.12891,-0.04687 -0.19531,-0.07031c-1.29297,-0.48047 -2.54297,-1.05078 -3.73438,-1.73828c0.01563,0.06641 0.03125,0.13281 0.04688,0.19922c0.3125,1.41797 0.37109,3.19922 -0.42969,4.47656c-0.80078,1.10938 -1.59766,1.78125 -2.96484,2.0586c-0.26953,0.04296 -0.53125,0.0625 -0.80078,0.07421c-0.09375,0.00391 -0.1875,0.00782 -0.28125,0.01172c-1.50782,0.03907 -3.08204,-0.25 -4.3086,-1.17187c-0.04687,-0.04688 -0.09375,-0.09375 -0.14453,-0.14453c0.01172,0.21875 0.02344,0.4414 0.03125,0.66015c0.00391,0.0625 0.00781,0.125 0.01172,0.1875c0.01172,0.25391 0.02734,0.50391 0.06641,0.75391c0.23437,1.38672 -0.1875,2.60547 -0.96485,3.75c-0.6875,0.89062 -2.05859,1.67187 -3.17578,1.86719c-1.96875,0.17968 -3.29297,-0.24219 -4.85156,-1.42578c-0.00781,0.0664 -0.01563,0.1289 -0.02344,0.19531c-0.15234,0.76562 -0.69531,1.37109 -1.31641,1.8164c-0.87109,0.55079 -1.73046,0.66407 -2.73437,0.74219c0.02344,0.03906 0.04687,0.07813 0.07031,0.11719c1.96094,3.16797 3.36719,6.60547 2.50781,10.35547c-0.24218,0.99609 -0.60937,1.92969 -1.05078,2.85547c-0.03125,0.0625 -0.05859,0.1289 -0.08984,0.19531c-0.85938,1.79687 -2.04297,3.44531 -3.25781,5.01953c-0.05469,0.06641 -0.05469,0.06641 -0.10547,0.13672c-0.23047,0.29687 -0.46094,0.58594 -0.69531,0.87891c-0.03907,0.04687 -0.07422,0.08984 -0.11329,0.13671c-0.45703,0.56641 -0.91796,1.12891 -1.39843,1.67579c-0.28907,0.33203 -0.56641,0.67187 -0.83594,1.01953c-0.04297,0.04297 -0.08594,0.08984 -0.12891,0.13672c-0.04687,0 -0.09375,0 -0.14453,0c-0.01562,0.03906 -0.03125,0.07812 -0.04687,0.11718c-0.13672,0.23828 -0.31641,0.42578 -0.50391,0.6211c-0.03906,0.04297 -0.07812,0.08203 -0.11719,0.125c-0.27734,0.29297 -0.55468,0.57812 -0.84375,0.85547c-0.13672,0.13671 -0.26172,0.27734 -0.38672,0.42187c-0.30859,0.35547 -0.64453,0.6875 -0.97656,1.01953c-0.10547,0.10547 -0.21094,0.20703 -0.3164,0.3125c-0.33985,0.33985 -0.6836,0.67188 -1.05469,0.98438c-0.13281,0.11328 -0.25391,0.23437 -0.37891,0.35937c-0.26562,0.26953 -0.54687,0.51563 -0.83594,0.76172c-0.07421,0.06641 -0.15234,0.13281 -0.22656,0.19531c-0.50781,0.4375 -1.02344,0.85938 -1.55469,1.26953c-0.17578,0.13672 -0.34765,0.27344 -0.51953,0.41407c-1.35547,1.09765 -2.8164,2.08984 -4.32422,2.97265c-0.07812,0.04688 -0.07812,0.04688 -0.15625,0.09375c-5.23828,3.0625 -11.02343,4.98828 -17.09765,5.41407c-0.08594,0.0039 -0.08594,0.0039 -0.17578,0.01171c-2.38672,0.16407 -4.81641,0.09375 -7.17578,-0.30468c-0.08594,-0.01172 -0.08594,-0.01172 -0.17579,-0.02735c-1.4414,-0.24609 -2.83984,-0.71093 -4.12109,-1.41797c-0.07422,-0.04296 -0.15234,-0.08203 -0.23047,-0.12109c-1.98828,-1.09375 -3.4375,-2.84375 -4.09375,-5.00781c-0.57812,-2.06641 -0.39844,-4.23047 0.0586,-6.29688c0.02343,-0.10937 0.02343,-0.10937 0.04687,-0.22265c0.01563,-0.06641 0.03125,-0.13282 0.04688,-0.19922c0.03125,-0.23828 -0.00391,-0.39453 -0.13282,-0.59375c-0.09765,-0.25 -0.05468,-0.48828 0.00782,-0.74219c0.05078,-0.07422 0.09765,-0.14453 0.14843,-0.21875c0.04688,0 0.09375,0 0.14453,0c0,-0.04687 0,-0.09375 0,-0.14453c0.08204,-0.05859 0.08204,-0.05859 0.16797,-0.11719c0.26172,-0.23047 0.31641,-0.45312 0.41797,-0.78515c0.84375,-2.53516 2.05078,-4.98438 3.41797,-7.28125c0.07422,-0.125 0.14453,-0.25 0.21875,-0.375c0.12891,-0.21875 0.25781,-0.4375 0.38672,-0.65625c0.04687,-0.07813 0.09375,-0.15625 0.14062,-0.23829c0.31641,-0.53125 0.65235,-1.04687 1,-1.55859c0.03516,-0.05078 0.07032,-0.10156 0.10547,-0.15625c1.29297,-1.89453 2.69141,-3.67578 4.23438,-5.37109c0.12109,-0.13282 0.23828,-0.26563 0.35937,-0.39844c0.3125,-0.35156 0.62891,-0.67969 0.99219,-0.98438c0.13672,-0.11718 0.26172,-0.23828 0.39063,-0.36718c0.26562,-0.26953 0.54687,-0.51563 0.83593,-0.76172c0.10547,-0.08985 0.10547,-0.08985 0.21094,-0.17969c2.30078,-1.96094 5.17188,-4.21094 8.30469,-4.45703c0.0664,-0.00391 0.13281,-0.00781 0.20312,-0.01563c1.13672,-0.04296 2.35938,0.27344 3.21875,1.03125c0.04688,0.03907 0.08985,0.07422 0.13672,0.11329c0.77344,0.71875 1.09766,1.70312 1.14063,2.73828c-0.09766,2.61718 -1.84375,5.14453 -3.29297,7.22656c-0.10938,0.15625 -0.21485,0.3125 -0.32422,0.46875c-0.99609,1.46484 -2.02734,2.89453 -3.19141,4.23047c-0.04297,0.05078 -0.08984,0.10156 -0.13672,0.15625c-0.12109,0.14062 -0.24609,0.28125 -0.375,0.42187c-0.05078,0.0586 -0.10546,0.11719 -0.16015,0.17969c-0.8711,0.96484 -1.78125,1.93359 -2.82422,2.71875c-0.07031,0.05469 -0.14063,0.10938 -0.21484,0.16797c-1.06641,0.83594 -2.19141,1.58594 -3.35157,2.29297c-0.04687,0.03125 -0.09765,0.05859 -0.14453,0.08984c-0.6875,0.42188 -1.39062,0.81641 -2.09765,1.19922c-0.14844,0.08203 -0.29297,0.16406 -0.4375,0.24219c-1.45313,0.79687 -3.01954,1.51172 -4.60157,2.01953c-0.08984,0.03125 -0.08984,0.03125 -0.18359,0.05859c-1.38672,0.4375 -2.42578,0.63672 -3.82031,0.16016c-0.00391,0.04687 -0.00782,0.09375 -0.00782,0.14062c-0.03906,0.4336 -0.09375,0.85547 -0.17187,1.28516c-0.32031,2.08984 -0.21094,4.46875 1.05469,6.25c1.70703,2.28516 4.53125,3.40625 7.28125,3.83984c5.80078,0.83594 11.77343,0.02344 21.25,-4.14062c0.19922,-0.11719 0.39843,-0.22656 0.60547,-0.33594c0.41015,-0.22265 0.80468,-0.46484 1.19921,-0.71484c0.07032,-0.04688 0.13672,-0.08985 0.21094,-0.13672c1.63672,-1.04688 3.19922,-2.20313 4.6836,-3.46484c0.21093,-0.17969 0.42578,-0.35157 0.64453,-0.52344c0.30859,-0.25 0.58984,-0.51563 0.86328,-0.80078c0.13672,-0.13282 0.27344,-0.25391 0.41797,-0.37891c0.42968,-0.37109 0.82422,-0.76953 1.22265,-1.16797c0.13672,-0.13672 0.27344,-0.27344 0.41016,-0.41015c0.72656,-0.70313 0.72656,-0.70313 1.36328,-1.48829c0.03516,-0.04296 0.07031,-0.08203 0.10547,-0.1289c0.05078,0 0.09766,0 0.14844,0c0.01953,-0.04297 0.03906,-0.08594 0.05859,-0.12891c0.08203,-0.15234 0.16406,-0.26172 0.27734,-0.39062c0.03907,-0.04297 0.07813,-0.08594 0.11719,-0.12891c0.03906,-0.04687 0.08203,-0.08984 0.125,-0.13672c0.41797,-0.47656 0.81641,-0.96484 1.20703,-1.46484c0.11719,-0.15235 0.23438,-0.30078 0.35547,-0.45313c0.51953,-0.65234 1.01172,-1.3164 1.47656,-2.00781c0.09375,-0.14062 0.1875,-0.27734 0.28125,-0.41797c0.42188,-0.61719 0.82032,-1.25 1.19532,-1.89453c0.03125,-0.05078 0.05859,-0.09766 0.08593,-0.14844c1.00782,-1.71093 1.83594,-3.53906 2.17188,-5.5039c0.01172,-0.07422 0.02734,-0.14453 0.03906,-0.21875c0.2461,-2.17578 -0.17187,-4.27344 -1.1289,-6.22657c-0.02735,-0.05078 -0.05079,-0.09765 -0.07422,-0.14843c-0.38672,-0.78125 -0.83985,-1.5 -1.33594,-2.21485c-0.12891,-0.18359 -0.25391,-0.36718 -0.37891,-0.55078c-0.85156,-1.2539 -1.82422,-2.10547 -3.0664,-2.96094c-0.23047,-0.1875 -0.42969,-0.36328 -0.5,-0.65625c0.00781,-0.53515 0.16797,-0.88671 0.51562,-1.28906c0.27344,-0.23047 0.48828,-0.23047 0.83203,-0.23047c0.07813,0 0.15625,0 0.23438,0c0.20312,0.00782 0.20312,0.00782 0.42187,0.08203c0.13282,-0.0664 0.13282,-0.0664 0.25391,-0.17187c0.32031,-0.25 0.57422,-0.29688 0.98437,-0.26172c0.34375,0.18359 0.67579,0.44141 0.94532,0.72266c0,0.04687 0,0.09765 0,0.14453c0.05078,0 0.09765,0 0.14843,0c0.10938,0.12109 0.21094,0.24609 0.3125,0.37109c0.0586,0.07422 0.11719,0.14453 0.17579,0.22266c0.08203,0.10156 0.08203,0.10156 0.16406,0.20312c0.07422,0.08594 0.14844,0.17188 0.22265,0.25782c0.14454,0.17578 0.14454,0.17578 0.14454,0.32421c0.19531,-0.00781 0.39062,-0.01562 0.58984,-0.02343c0.05469,-0.00391 0.10937,-0.00391 0.16797,-0.00391c0.35156,-0.01953 0.60937,-0.07031 0.91406,-0.26562c0.33203,-0.41016 0.46875,-0.81641 0.46484,-1.33594c-0.05078,-0.34766 -0.2539,-0.61719 -0.44531,-0.90235c-0.83594,-1.27734 -0.83594,-1.27734 -0.74609,-2.03515c0.16015,-0.5625 0.54687,-0.86328 1.03515,-1.15235c0.5,-0.14062 1.01172,-0.17187 1.48438,0.0586c0.24609,0.15234 0.24609,0.15234 0.39062,0.29687c0.17969,0.00782 0.17969,0.00782 0.38282,-0.00781c0.375,-0.00781 0.57031,0.04297 0.85547,0.30078c0.22265,0.24219 0.28906,0.48438 0.36718,0.80078c0.01563,0.04688 0.02735,0.09375 0.03907,0.14453c0.07421,0.28516 0.1289,0.56641 0.16796,0.85938c0.0586,0.33594 0.17188,0.53906 0.39454,0.79687c0.14062,0.16797 0.26171,0.34766 0.38281,0.53125c0.23437,0.33204 0.4375,0.57422 0.83203,0.70313c0.92969,0.13672 2.07422,-0.30469 2.83984,-0.79688c0.61328,-0.46093 0.77735,-1.25 0.91797,-1.96484c0.08203,-0.60156 0.02344,-1.18359 -0.08203,-1.77734c-0.03516,-0.24219 -0.04687,-0.48047 -0.05859,-0.72657c-0.03125,-0.46093 -0.17188,-0.78515 -0.41407,-1.17968c-0.03906,-0.0625 -0.07421,-0.125 -0.11328,-0.19141c-0.03906,-0.0625 -0.07812,-0.125 -0.11718,-0.1875c-0.32813,-0.54297 -0.42969,-1.01562 -0.35157,-1.64844c0.19532,-0.54297 0.65625,-0.86718 1.15235,-1.12109c0.45312,-0.07813 0.8789,-0.05469 1.28125,0.17969c0.0625,0.04687 0.125,0.09375 0.1875,0.14453c0.22265,0.07422 0.41015,0.07031 0.64062,0.05859c0.36719,-0.0039 0.61719,0.05078 0.89063,0.30078c0.39062,0.56641 0.53515,1.42188 0.50781,2.10157c0.03906,0.01953 0.07812,0.03906 0.12109,0.05859c0.27344,0.14062 0.52735,0.3125 0.78516,0.48047c0.31641,0.19531 0.60547,0.20312 0.96875,0.21484c0.05469,0.00391 0.10937,0.00781 0.16797,0.00781c0.11719,0.00391 0.23828,0.00782 0.35547,0.01172c0.17968,0.00782 0.35547,0.01172 0.53515,0.01953c1.15625,0.0586 1.15625,0.0586 2.16407,-0.42968c0.0664,-0.20703 0.07812,-0.33203 0.07812,-0.54688c0,-0.0664 0,-0.13281 -0.00391,-0.20312c0,-0.07032 0,-0.14453 0,-0.21875c-0.0039,-0.11328 -0.0039,-0.11328 -0.0039,-0.22657c-0.00391,-0.16015 -0.00391,-0.3164 -0.00781,-0.47656c-0.00391,-0.23828 -0.00782,-0.48047 -0.00782,-0.72265c-0.01172,-1.11329 -0.01172,-1.11329 -0.34765,-2.16797c-0.02344,-0.05469 -0.04297,-0.10547 -0.06641,-0.15625c-0.0625,-0.14063 -0.13281,-0.27735 -0.20312,-0.41407c-0.02344,-0.05078 -0.04688,-0.09765 -0.07422,-0.14843c-0.17578,-0.33985 -0.3711,-0.66016 -0.58594,-0.98047c-0.69531,-1.04688 -0.69531,-1.04688 -0.59766,-1.70703c0.21094,-0.51563 0.61719,-0.85938 1.1211,-1.09766c0.46875,-0.15234 0.97656,-0.125 1.42578,0.07813c0.05078,0.02734 0.09765,0.05468 0.14844,0.08203c0.26171,0.1289 0.46875,0.14453 0.75781,0.125c0.24219,0 0.3164,0.00781 0.52734,0.14453c0.27344,0.38281 0.4961,0.8125 0.66016,1.25c0.14453,0.22656 0.35547,0.36328 0.5664,0.51562c0.05079,0.03516 0.09766,0.06641 0.14844,0.10547c1.37891,0.97266 2.82813,1.65625 4.47266,2.0586c0.0625,0.01562 0.1289,0.03125 0.19531,0.04687c1.01563,0.28516 1.01563,0.28516 1.98828,0.02344c0.35156,-0.22656 0.6875,-0.46875 1.01953,-0.72266c-0.0625,-0.53515 -0.16015,-1.0625 -0.26562,-1.59375c-0.02344,-0.13281 -0.04688,-0.26562 -0.07031,-0.39844c-0.37891,-2 -1.57422,-4.17578 -3.01172,-5.60546c-0.14844,-0.15235 -0.14844,-0.15235 -0.21875,-0.3711c-0.09766,-0.05078 -0.19532,-0.09765 -0.29297,-0.14453c-0.35938,-0.375 -0.58594,-0.83984 -0.80078,-1.30469c-0.03125,-0.05859 -0.0586,-0.12109 -0.08985,-0.18359c-0.24609,-0.53906 -0.22265,-0.91016 -0.03906,-1.46484c0.58203,-1.07032 1.76953,-0.85157 2.75,-0.45313zm-62.69531,31.40625c-0.125,0.09766 -0.25391,0.19531 -0.37891,0.28906c-0.84375,0.62891 -1.6289,1.32032 -2.40234,2.03125c-0.16406,0.14844 -0.32813,0.29297 -0.5,0.4336c-0.06641,0.05859 -0.13281,0.11718 -0.19922,0.17578c0,0.04687 0,0.09375 0,0.14453c-0.04297,0.01953 -0.08984,0.03516 -0.13281,0.05469c-0.17969,0.10156 -0.27344,0.19922 -0.40235,0.35547c-0.16406,0.19531 -0.32812,0.3789 -0.51172,0.55468c-0.26953,0.26563 -0.5039,0.55078 -0.74218,0.84766c-0.15235,0.18359 -0.3086,0.36719 -0.46485,0.54687c-0.49218,0.57032 -0.94531,1.16407 -1.38672,1.76954c-0.03515,0.04687 -0.07031,0.09375 -0.10546,0.14453c-1.05079,1.4414 -2.00782,2.9414 -2.87891,4.49218c-0.04688,0.07813 -0.08984,0.15625 -0.13672,0.23829c-1.08594,1.9375 -2.26953,4.10156 -2.77734,6.28125c4.47265,-0.53516 8.80078,-2.99219 12.23047,-5.79688c0.04296,-0.03125 0.08593,-0.06641 0.1289,-0.10156c0.41797,-0.34766 0.83203,-0.69531 1.21094,-1.08594c0.125,-0.12109 0.25391,-0.23047 0.38672,-0.34375c0.39062,-0.33594 0.73047,-0.71875 1.07812,-1.10156c0.09766,-0.10938 0.19922,-0.21485 0.30469,-0.32031c2.37891,-2.48829 5.02734,-6.53907 5.00391,-10.10938c-0.01953,-0.52734 -0.16016,-0.92969 -0.48828,-1.34375c-2.04297,-1.57031 -5.17969,0.55078 -6.83594,1.84375zm0,0" fill="black" fill-rule="nonzero" id="svg_8" stroke-dasharray="455.25601" stroke-linecap="round" stroke-width="10">
     <animate attributeName="stroke-dashoffset" begin="0" dur="10" end="10" from="455.25601" repeatCount="1" to="0"/>
     <animate attributeName="stroke-dashoffset" begin="0" dur="10" end="10" from="455.25601" repeatCount="1" to="0"/>
     <animate attributeName="stroke-dashoffset" begin="0" dur="10" from="455.25601" repeatCount="100" to="0"/>
     <animate attributeName="stroke-dashoffset" begin="0" dur="10" from="455.25601" repeatCount="100" to="0"/>
     <animate attributeName="stroke-dashoffset" begin="0" dur="10" from="455.25601" repeatCount="100" to="0"/>
     <animate attributeName="stroke-dashoffset" begin="0" dur="10" from="455.25601" repeatCount="100" to="0"/>
     <animate attributeName="stroke-dashoffset" begin="0" dur="10" from="455.25601" repeatCount="100" to="0"/>
     <animate attributeName="fill" begin="0" dur="10" end="0" repeatCount="100" values="green;red"/>
     <animate attributeName="fill" begin="0" dur="10" end="1" repeatCount="100" values="green;red"/>
     <animate attributeName="fill" begin="0" dur="10" repeatCount="10" values="green;red"/>
     <animate attributeName="fill" begin="0" dur="10" repeatCount="10" values="green;red"/>
    </path>
    <path d="m-299.09236,-230.64567c0.3125,0.17968 0.53516,0.3789 0.76953,0.64843c0.16797,0.19141 0.32813,0.36719 0.51953,0.53907c0.37891,0.42578 0.57422,0.97265 0.77344,1.5039c0.18359,0.48438 0.41797,0.9336 0.66406,1.38672c0.38672,0.72656 0.73828,1.46094 1.06641,2.21485c0.01953,0.04687 0.03906,0.09765 0.0625,0.14843c0.10547,0.24219 0.21094,0.48828 0.31641,0.73438c0.91015,2.10547 1.92187,4.13672 3.07812,6.11719c0.10156,0.17187 0.19922,0.34765 0.29688,0.51953c0.51953,0.91406 1.11328,1.70312 1.875,2.43359c0.34375,0.33594 0.6289,0.70703 0.91796,1.09375c0.24219,0.32422 0.4961,0.64063 0.76172,0.95313c0.47657,0.55859 0.875,1.11328 1.20313,1.77343c0.05078,0.09766 0.05078,0.09766 0.10156,0.19922c0.90234,1.78125 2.25391,4.71094 1.57813,6.74219c-0.57032,1.17578 -0.57032,1.17578 -1.09766,1.46094c-0.42188,0.09375 -0.77344,0.04687 -1.14063,-0.1836c-0.83203,-0.6289 -1.1875,-1.24218 -1.43359,-2.23437c-0.04687,-0.17969 -0.09375,-0.35547 -0.14062,-0.53516c-0.07032,-0.27734 -0.14063,-0.55469 -0.21094,-0.83203c-0.34766,-1.36719 -0.73047,-2.50781 -1.5625,-3.65234c-0.1875,-0.25782 -0.35156,-0.52735 -0.51563,-0.80078c-0.26953,-0.4375 -0.5625,-0.84766 -0.87109,-1.26172c-0.55469,-0.75391 -0.92188,-1.54297 -1.27344,-2.40625c-0.45312,-1.10157 -1.08203,-2.13282 -1.67969,-3.16016c-0.13671,-0.24219 -0.27734,-0.48047 -0.41406,-0.71875c-0.875,-1.53906 -1.79297,-3.03125 -2.79687,-4.48828c-0.23438,-0.33984 -0.46875,-0.68359 -0.69922,-1.02344c-0.04297,-0.0625 -0.08594,-0.125 -0.12891,-0.1875c-0.51953,-0.75781 -0.97265,-1.53125 -1.38672,-2.35156c-0.25781,-0.5 -0.54297,-0.92969 -0.88672,-1.375c-0.40234,-0.55469 -0.48046,-1.14844 -0.58593,-1.80859c-0.01953,-0.11719 -0.01953,-0.11719 -0.04688,-0.23438c-0.04687,-0.37109 0.08985,-0.6875 0.28906,-1c0.70704,-0.89453 1.6836,-0.59375 2.59766,-0.21484zm0,0" fill="black" fill-rule="nonzero" id="svg_9" stroke-dasharray="69.07819" stroke-linecap="round" stroke-width="10">
     <animate attributeName="stroke-dashoffset" begin="0" dur="10" end="10" from="69.07819" repeatCount="1" to="0"/>
     <animate attributeName="stroke-dashoffset" begin="0" dur="10" end="10" from="69.07819" repeatCount="1" to="0"/>
     <animate attributeName="stroke-dashoffset" begin="0" dur="10" from="69.07819" repeatCount="100" to="0"/>
     <animate attributeName="stroke-dashoffset" begin="0" dur="10" from="69.07819" repeatCount="100" to="0"/>
     <animate attributeName="stroke-dashoffset" begin="0" dur="10" from="69.07819" repeatCount="100" to="0"/>
     <animate attributeName="stroke-dashoffset" begin="0" dur="10" from="69.07819" repeatCount="100" to="0"/>
     <animate attributeName="stroke-dashoffset" begin="0" dur="10" from="69.07819" repeatCount="100" to="0"/>
     <animate attributeName="fill" begin="0" dur="10" end="0" repeatCount="100" values="green;red"/>
     <animate attributeName="fill" begin="0" dur="10" end="1" repeatCount="100" values="green;red"/>
     <animate attributeName="fill" begin="0" dur="10" repeatCount="10" values="green;red"/>
     <animate attributeName="fill" begin="0" dur="10" repeatCount="10" values="green;red"/>
    </path>
    <path d="m-301.33455,-238.98552c0.21094,0.15625 0.35547,0.29688 0.4961,0.51563c0,0.09765 0,0.1914 0,0.28906c0.08203,0.00781 0.08203,0.00781 0.16406,0.01563c0.19922,0.05859 0.19922,0.05859 0.3125,0.23046c0.25781,0.27344 0.53125,0.32032 0.89062,0.40625c0.71875,0.1836 1.34766,0.44141 1.76172,1.08985c0.28125,0.57031 0.40625,1.08984 0.21094,1.70312c-0.44922,0.82422 -1.16406,1.50782 -1.91406,2.0625c-0.25781,0.19532 -0.51172,0.40235 -0.76563,0.60547c-0.05078,0.04297 -0.10156,0.08203 -0.15625,0.125c-0.26953,0.22266 -0.53515,0.44531 -0.78906,0.6875c-0.31641,0.28516 -0.64844,0.53516 -0.99219,0.78125c-0.05078,0.03906 -0.10156,0.07422 -0.15625,0.11328c-0.35156,0.25 -0.69531,0.39844 -1.11328,0.51172c-0.05859,0.01563 -0.11719,0.03125 -0.17969,0.04688c-0.30078,0.03906 -0.60546,0.04297 -0.91015,0.04297c-0.09375,0.0039 -0.09375,0.0039 -0.19141,0.0039c-0.44922,0.00391 -0.74609,-0.0625 -1.10937,-0.33984c-0.22657,-0.30469 -0.17188,-0.71485 -0.12891,-1.07031c0.16797,-0.75 0.61328,-1.07813 1.20703,-1.50782c0.15235,-0.11328 0.30078,-0.22265 0.45313,-0.33593c0.07031,-0.05079 0.14062,-0.10547 0.21484,-0.16016c0.32813,-0.25 0.63281,-0.52734 0.93359,-0.80859c0.04688,-0.04297 0.09375,-0.08204 0.14063,-0.125c0.37109,-0.35157 0.66016,-0.76172 0.95312,-1.17969c-0.0625,-0.01953 -0.125,-0.04297 -0.1875,-0.0625c-0.7539,-0.26953 -1.40234,-0.59375 -1.78906,-1.32813c-0.28515,-0.63672 -0.37109,-1.27734 -0.13672,-1.9414c0.14844,-0.3125 0.30078,-0.46094 0.60938,-0.60547c0.78515,-0.27735 1.48047,-0.17188 2.17187,0.23437zm0,0" fill="black" fill-rule="nonzero" id="svg_10" stroke-dasharray="31.17596" stroke-linecap="round" stroke-width="10">
     <animate attributeName="stroke-dashoffset" begin="0" dur="10" end="10" from="31.17596" repeatCount="1" to="0"/>
     <animate attributeName="stroke-dashoffset" begin="0" dur="10" end="10" from="31.17596" repeatCount="1" to="0"/>
     <animate attributeName="stroke-dashoffset" begin="0" dur="10" from="31.17596" repeatCount="100" to="0"/>
     <animate attributeName="stroke-dashoffset" begin="0" dur="10" from="31.17596" repeatCount="100" to="0"/>
     <animate attributeName="stroke-dashoffset" begin="0" dur="10" from="31.17596" repeatCount="100" to="0"/>
     <animate attributeName="stroke-dashoffset" begin="0" dur="10" from="31.17596" repeatCount="100" to="0"/>
     <animate attributeName="stroke-dashoffset" begin="0" dur="10" from="31.17596" repeatCount="100" to="0"/>
     <animate attributeName="fill" begin="0" dur="10" end="0" repeatCount="100" values="green;red"/>
     <animate attributeName="fill" begin="0" dur="10" end="1" repeatCount="100" values="green;red"/>
     <animate attributeName="fill" begin="0" dur="10" repeatCount="10" values="green;red"/>
     <animate attributeName="fill" begin="0" dur="10" repeatCount="10" values="green;red"/>
    </path>
    <path d="m-310.13923,-225.03239c0.46875,0.36328 0.66406,0.77344 0.73828,1.35156c0.03125,0.63672 -0.10157,1.10938 -0.52344,1.58594c-0.44922,0.42187 -0.85938,0.58594 -1.46875,0.60156c-0.60938,-0.01562 -1.02344,-0.17969 -1.46875,-0.59375c-0.38672,-0.44922 -0.55859,-0.96484 -0.52734,-1.55469c0.08203,-0.52734 0.29296,-0.98437 0.68359,-1.35547c0.85156,-0.55468 1.69922,-0.59765 2.56641,-0.03515zm0,0" fill="black" fill-rule="nonzero" id="svg_11" stroke-dasharray="12.53305" stroke-linecap="round" stroke-width="10">
     <animate attributeName="stroke-dashoffset" begin="0" dur="10" end="10" from="12.53305" repeatCount="1" to="0"/>
     <animate attributeName="stroke-dashoffset" begin="0" dur="10" end="10" from="12.53305" repeatCount="1" to="0"/>
     <animate attributeName="stroke-dashoffset" begin="0" dur="10" from="12.53305" repeatCount="100" to="0"/>
     <animate attributeName="stroke-dashoffset" begin="0" dur="10" from="12.53305" repeatCount="100" to="0"/>
     <animate attributeName="stroke-dashoffset" begin="0" dur="10" from="12.53305" repeatCount="100" to="0"/>
     <animate attributeName="stroke-dashoffset" begin="0" dur="10" from="12.53305" repeatCount="100" to="0"/>
     <animate attributeName="stroke-dashoffset" begin="0" dur="10" from="12.53305" repeatCount="100" to="0"/>
     <animate attributeName="fill" begin="0" dur="10" end="0" repeatCount="100" values="green;red"/>
     <animate attributeName="fill" begin="0" dur="10" end="1" repeatCount="100" values="green;red"/>
     <animate attributeName="fill" begin="0" dur="10" repeatCount="10" values="green;red"/>
     <animate attributeName="fill" begin="0" dur="10" repeatCount="10" values="green;red"/>
    </path>
    <path d="m-308.40877,-195.36833c0.45313,0.39844 0.67969,0.89844 0.72657,1.49609c0,0.57813 -0.19922,1.03907 -0.58203,1.47266c-0.48047,0.41406 -0.96094,0.60547 -1.59375,0.57422c-0.52735,-0.07031 -0.99219,-0.28125 -1.35157,-0.67969c-0.39453,-0.51953 -0.51172,-1.01562 -0.46484,-1.66406c0.09375,-0.53516 0.39844,-0.875 0.76562,-1.25781c0.8086,-0.53125 1.71094,-0.46875 2.5,0.05859zm0,0" fill="black" fill-rule="nonzero" id="svg_12" stroke-dasharray="12.54893" stroke-linecap="round" stroke-width="10">
     <animate attributeName="stroke-dashoffset" begin="0" dur="10" end="10" from="12.54893" repeatCount="1" to="0"/>
     <animate attributeName="stroke-dashoffset" begin="0" dur="10" end="10" from="12.54893" repeatCount="1" to="0"/>
     <animate attributeName="stroke-dashoffset" begin="0" dur="10" from="12.54893" repeatCount="100" to="0"/>
     <animate attributeName="stroke-dashoffset" begin="0" dur="10" from="12.54893" repeatCount="100" to="0"/>
     <animate attributeName="stroke-dashoffset" begin="0" dur="10" from="12.54893" repeatCount="100" to="0"/>
     <animate attributeName="stroke-dashoffset" begin="0" dur="10" from="12.54893" repeatCount="100" to="0"/>
     <animate attributeName="stroke-dashoffset" begin="0" dur="10" from="12.54893" repeatCount="100" to="0"/>
     <animate attributeName="fill" begin="0" dur="10" end="0" repeatCount="100" values="green;red"/>
     <animate attributeName="fill" begin="0" dur="10" end="1" repeatCount="100" values="green;red"/>
     <animate attributeName="fill" begin="0" dur="10" repeatCount="10" values="green;red"/>
     <animate attributeName="fill" begin="0" dur="10" repeatCount="10" values="green;red"/>
    </path>
    <path d="m-334.69002,-249.62224c0.42969,0.35157 0.69141,0.79688 0.7461,1.35157c0.02344,0.65625 -0.13281,1.10547 -0.5625,1.60937c-0.51563,0.42578 -0.96094,0.61719 -1.63672,0.58203c-0.53906,-0.07422 -1.00391,-0.28125 -1.34766,-0.71093c-0.0625,-0.09766 -0.125,-0.19532 -0.18359,-0.29688c-0.04688,-0.07812 -0.09375,-0.15234 -0.13672,-0.23047c-0.14062,-0.47656 -0.18359,-1.03906 0.00781,-1.5039c0.04297,-0.07422 0.08203,-0.14844 0.12891,-0.22266c0.03906,-0.07422 0.07812,-0.14844 0.11719,-0.22266c0.71484,-0.8789 1.9414,-0.99218 2.86718,-0.35547zm0,0" fill="black" fill-rule="nonzero" id="svg_13" stroke-dasharray="12.52913" stroke-linecap="round" stroke-width="10">
     <animate attributeName="stroke-dashoffset" begin="0" dur="10" end="10" from="12.52913" repeatCount="1" to="0"/>
     <animate attributeName="stroke-dashoffset" begin="0" dur="10" end="10" from="12.52913" repeatCount="1" to="0"/>
     <animate attributeName="stroke-dashoffset" begin="0" dur="10" from="12.52913" repeatCount="100" to="0"/>
     <animate attributeName="stroke-dashoffset" begin="0" dur="10" from="12.52913" repeatCount="100" to="0"/>
     <animate attributeName="stroke-dashoffset" begin="0" dur="10" from="12.52913" repeatCount="100" to="0"/>
     <animate attributeName="stroke-dashoffset" begin="0" dur="10" from="12.52913" repeatCount="100" to="0"/>
     <animate attributeName="stroke-dashoffset" begin="0" dur="10" from="12.52913" repeatCount="100" to="0"/>
     <animate attributeName="fill" begin="0" dur="10" end="0" repeatCount="100" values="green;red"/>
     <animate attributeName="fill" begin="0" dur="10" end="1" repeatCount="100" values="green;red"/>
     <animate attributeName="fill" begin="0" dur="10" repeatCount="10" values="green;red"/>
     <animate attributeName="fill" begin="0" dur="10" repeatCount="10" values="green;red"/>
    </path>
    <path d="m-303.69002,-198.52849c0.44141,0.32422 0.77735,0.73047 0.88672,1.27735c0.07813,0.65234 -0.07031,1.16797 -0.41797,1.72265c-0.45312,0.4375 -0.94921,0.65235 -1.58203,0.67188c-0.54687,-0.03125 -1.03906,-0.20313 -1.42968,-0.59375c-0.42188,-0.51563 -0.53907,-0.97266 -0.53125,-1.63281c0.0625,-0.54297 0.33593,-0.98438 0.75781,-1.32813c0.67578,-0.49609 1.57812,-0.54687 2.3164,-0.11719zm0,0" fill="black" fill-rule="nonzero" id="svg_14" stroke-dasharray="12.53698" stroke-linecap="round" stroke-width="10">
     <animate attributeName="stroke-dashoffset" begin="0" dur="10" end="10" from="12.53698" repeatCount="1" to="0"/>
     <animate attributeName="stroke-dashoffset" begin="0" dur="10" end="10" from="12.53698" repeatCount="1" to="0"/>
     <animate attributeName="stroke-dashoffset" begin="0" dur="10" from="12.53698" repeatCount="100" to="0"/>
     <animate attributeName="stroke-dashoffset" begin="0" dur="10" from="12.53698" repeatCount="100" to="0"/>
     <animate attributeName="stroke-dashoffset" begin="0" dur="10" from="12.53698" repeatCount="100" to="0"/>
     <animate attributeName="stroke-dashoffset" begin="0" dur="10" from="12.53698" repeatCount="100" to="0"/>
     <animate attributeName="stroke-dashoffset" begin="0" dur="10" from="12.53698" repeatCount="100" to="0"/>
     <animate attributeName="fill" begin="0" dur="10" end="0" repeatCount="100" values="green;red"/>
     <animate attributeName="fill" begin="0" dur="10" end="1" repeatCount="100" values="green;red"/>
     <animate attributeName="fill" begin="0" dur="10" repeatCount="10" values="green;red"/>
     <animate attributeName="fill" begin="0" dur="10" repeatCount="10" values="green;red"/>
    </path>
   </g>
   <animate attributeName="fill" begin="0" dur="10" repeatCount="100" values="green;red"/>
   <animate attributeName="fill" begin="0" dur="10" repeatCount="100" values="green;red"/>
   <animate attributeName="fill" begin="0" dur="10" repeatCount="100" values="green;red"/>
   <animate attributeName="fill" begin="0" dur="10" repeatCount="100" values="green;red"/>
   <animate attributeName="fill" begin="0" dur="10" repeatCount="100" values="green;red"/>
   <animate attributeName="fill" begin="0" dur="10" repeatCount="100" values="green;red"/>
   <animate attributeName="fill" begin="0" dur="10" repeatCount="10" values="red;red"/>
   <animate attributeName="fill" begin="0" dur="10" repeatCount="10" values="green;red"/>
  </g>
 </g>
</svg>