<?xml version="1.0" encoding="UTF-8"?>
<svg xmlns="http://www.w3.org/2000/svg" xmlns:xlink="http://www.w3.org/1999/xlink" width="106px" height="150px" viewBox="0 0 106 149" version="1.1">
<g id="surface1">
<path style=" stroke:none;fill-rule:nonzero;fill:rgb(0%,0%,0%);fill-opacity:1;" d="M 65.859375 24.839844 C 65.917969 24.890625 65.972656 24.9375 66.03125 24.992188 C 66.09375 25.042969 66.15625 25.097656 66.222656 25.152344 C 66.601562 25.476562 66.925781 25.800781 67.195312 26.222656 C 67.242188 26.292969 67.289062 26.363281 67.335938 26.433594 C 68.5 28.347656 68.738281 30.582031 68.234375 32.753906 C 67.402344 36.042969 65.183594 38.789062 63.085938 41.386719 C 62.871094 41.648438 62.660156 41.917969 62.449219 42.183594 C 62.09375 42.640625 61.722656 43.085938 61.34375 43.527344 C 61.113281 43.796875 60.886719 44.074219 60.660156 44.351562 C 60.546875 44.492188 60.429688 44.628906 60.308594 44.761719 C 60.25 44.832031 60.1875 44.902344 60.125 44.972656 C 60.070312 45.035156 60.015625 45.097656 59.957031 45.164062 C 59.824219 45.332031 59.824219 45.332031 59.863281 45.511719 C 59.917969 45.714844 59.984375 45.902344 60.066406 46.09375 C 60.097656 46.167969 60.128906 46.246094 60.160156 46.324219 C 60.191406 46.40625 60.226562 46.488281 60.261719 46.570312 C 60.296875 46.65625 60.332031 46.746094 60.371094 46.835938 C 60.484375 47.109375 60.601562 47.386719 60.71875 47.664062 C 60.753906 47.75 60.789062 47.835938 60.828125 47.921875 C 61.425781 49.335938 62.078125 50.71875 62.738281 52.097656 C 63.34375 53.355469 63.925781 54.625 64.507812 55.894531 C 64.542969 55.972656 64.542969 55.972656 64.582031 56.058594 C 64.65625 56.21875 64.730469 56.378906 64.804688 56.542969 C 64.839844 56.621094 64.839844 56.621094 64.878906 56.699219 C 64.988281 56.9375 65.09375 57.175781 65.203125 57.410156 C 65.679688 58.445312 66.164062 59.46875 66.664062 60.488281 C 66.878906 60.925781 67.089844 61.363281 67.292969 61.808594 C 67.871094 63.078125 68.644531 64.308594 69.671875 65.265625 C 70.082031 65.0625 70.390625 64.800781 70.726562 64.492188 C 70.855469 64.371094 70.988281 64.257812 71.125 64.148438 C 71.359375 63.949219 71.542969 63.742188 71.726562 63.5 C 71.761719 63.453125 71.796875 63.410156 71.832031 63.363281 C 71.9375 63.226562 72.042969 63.085938 72.148438 62.945312 C 72.175781 62.90625 72.207031 62.867188 72.238281 62.824219 C 73.890625 60.574219 75.078125 57.753906 75.933594 55.125 C 75.878906 55.121094 75.824219 55.121094 75.765625 55.117188 C 75.515625 55.113281 75.261719 55.105469 75.007812 55.097656 C 74.921875 55.09375 74.835938 55.09375 74.75 55.089844 C 73.75 55.058594 72.769531 55.011719 72.011719 54.300781 C 71.78125 54.054688 71.492188 53.730469 71.492188 53.386719 C 71.425781 53.355469 71.425781 53.355469 71.355469 53.320312 C 71.199219 53.238281 71.199219 53.238281 71.054688 53.09375 C 71.082031 52.789062 71.167969 52.515625 71.273438 52.226562 C 71.292969 52.171875 71.308594 52.117188 71.328125 52.058594 C 72.011719 50.183594 74.308594 48.488281 76.078125 47.664062 C 76.898438 47.328125 78.054688 47.277344 78.890625 47.585938 C 79.660156 47.96875 80.234375 48.59375 80.519531 49.402344 C 80.960938 51.726562 80.378906 54.347656 79.34375 56.457031 C 79.226562 56.695312 79.136719 56.875 79.132812 57.148438 C 79.25 57.480469 79.410156 57.789062 79.578125 58.101562 C 79.613281 58.167969 79.648438 58.238281 79.6875 58.308594 C 80.160156 59.289062 80.160156 59.289062 80.957031 59.976562 C 81.808594 60.140625 82.4375 59.824219 83.140625 59.398438 C 83.195312 59.363281 83.25 59.332031 83.304688 59.296875 C 84.046875 58.839844 84.703125 58.339844 85.324219 57.730469 C 85.371094 57.691406 85.414062 57.648438 85.460938 57.605469 C 86.726562 56.445312 87.625 54.632812 87.871094 52.949219 C 87.882812 52.871094 87.882812 52.871094 87.898438 52.792969 C 88.109375 51.136719 88.007812 49.160156 87.679688 47.527344 C 87.585938 47.050781 87.554688 46.582031 87.550781 46.097656 C 87.546875 46.03125 87.546875 45.964844 87.542969 45.894531 C 87.546875 45.457031 87.617188 45.128906 87.871094 44.765625 C 88.339844 44.3125 88.96875 44.109375 89.605469 44.078125 C 90.296875 44.097656 90.84375 44.347656 91.316406 44.839844 C 91.519531 45.074219 91.6875 45.324219 91.855469 45.589844 C 91.890625 45.648438 91.925781 45.707031 91.964844 45.769531 C 93.078125 47.589844 93.789062 49.582031 94.277344 51.648438 C 94.300781 51.730469 94.300781 51.730469 94.320312 51.816406 C 94.417969 52.207031 94.453125 52.578125 94.453125 52.980469 C 94.453125 53.042969 94.453125 53.101562 94.453125 53.164062 C 94.4375 53.824219 94.238281 54.304688 93.84375 54.832031 C 93.789062 54.90625 93.738281 54.976562 93.683594 55.050781 C 93.28125 55.515625 92.738281 55.8125 92.125 55.863281 C 91.664062 55.878906 91.285156 55.808594 90.855469 55.628906 C 90.839844 55.691406 90.820312 55.75 90.800781 55.8125 C 90.457031 56.769531 89.808594 57.597656 89.183594 58.382812 C 89.125 58.457031 89.070312 58.527344 89.007812 58.601562 C 88.660156 59.035156 88.292969 59.441406 87.914062 59.847656 C 87.757812 60.015625 87.605469 60.1875 87.457031 60.363281 C 87.207031 60.648438 86.929688 60.894531 86.632812 61.136719 C 86.589844 61.171875 86.542969 61.210938 86.492188 61.25 C 85.921875 61.699219 85.308594 61.949219 84.617188 62.167969 C 84.558594 62.1875 84.5 62.207031 84.441406 62.222656 C 83.152344 62.621094 81.796875 62.53125 80.59375 61.933594 C 79.601562 61.355469 79.144531 60.527344 78.625 59.542969 C 78.582031 59.460938 78.582031 59.460938 78.539062 59.378906 C 78.511719 59.328125 78.488281 59.277344 78.457031 59.226562 C 78.433594 59.179688 78.410156 59.132812 78.386719 59.085938 C 78.335938 58.960938 78.335938 58.960938 78.335938 58.746094 C 78.289062 58.746094 78.238281 58.746094 78.191406 58.746094 C 78.160156 58.835938 78.160156 58.835938 78.132812 58.925781 C 78.03125 59.210938 77.90625 59.476562 77.769531 59.746094 C 77.742188 59.796875 77.714844 59.851562 77.6875 59.90625 C 77.601562 60.078125 77.511719 60.253906 77.425781 60.425781 C 77.363281 60.542969 77.304688 60.664062 77.246094 60.785156 C 76.898438 61.46875 76.546875 62.15625 76.179688 62.832031 C 76.042969 63.089844 75.914062 63.34375 75.78125 63.601562 C 74.867188 65.402344 73.984375 67.066406 71.960938 67.742188 C 71.046875 67.953125 70.179688 67.777344 69.378906 67.308594 C 66.839844 65.570312 65.753906 61.550781 64.574219 58.839844 C 63.539062 56.457031 62.464844 54.097656 61.3125 51.765625 C 60.476562 50.074219 59.664062 48.371094 58.898438 46.648438 C 58.847656 46.648438 58.800781 46.648438 58.75 46.648438 C 58.597656 46.808594 58.453125 46.972656 58.308594 47.140625 C 58.265625 47.191406 58.222656 47.242188 58.179688 47.292969 C 57.890625 47.632812 57.605469 47.976562 57.320312 48.324219 C 57.074219 48.621094 56.820312 48.914062 56.5625 49.207031 C 56.304688 49.5 56.050781 49.796875 55.796875 50.09375 C 55.414062 50.546875 55.027344 50.996094 54.640625 51.445312 C 54.457031 51.65625 54.273438 51.871094 54.09375 52.082031 C 54.019531 52.164062 53.945312 52.25 53.875 52.335938 C 53.820312 52.398438 53.820312 52.398438 53.765625 52.460938 C 53.65625 52.589844 53.546875 52.714844 53.4375 52.839844 C 53.402344 52.882812 53.363281 52.925781 53.328125 52.96875 C 53.253906 53.054688 53.183594 53.136719 53.109375 53.222656 C 52.929688 53.433594 52.746094 53.644531 52.566406 53.851562 C 52.074219 54.425781 51.578125 54.996094 51.082031 55.5625 C 50.960938 55.707031 50.835938 55.847656 50.714844 55.988281 C 50.371094 56.386719 50.023438 56.78125 49.667969 57.167969 C 49.453125 57.40625 49.25 57.644531 49.050781 57.894531 C 48.753906 58.261719 48.433594 58.605469 48.109375 58.949219 C 47.871094 59.199219 47.648438 59.453125 47.429688 59.722656 C 47.140625 60.085938 46.824219 60.421875 46.503906 60.761719 C 46.273438 61.007812 46.050781 61.257812 45.839844 61.523438 C 45.515625 61.925781 45.164062 62.296875 44.808594 62.667969 C 44.539062 62.953125 44.277344 63.238281 44.019531 63.53125 C 43.84375 63.738281 43.65625 63.933594 43.472656 64.132812 C 43.15625 64.46875 42.84375 64.8125 42.535156 65.15625 C 42.25 65.46875 41.960938 65.78125 41.671875 66.09375 C 41.503906 66.277344 41.335938 66.457031 41.167969 66.640625 C 41.101562 66.714844 41.035156 66.785156 40.96875 66.859375 C 40.835938 67.003906 40.703125 67.144531 40.570312 67.289062 C 40.503906 67.363281 40.4375 67.433594 40.375 67.503906 C 40.324219 67.558594 40.324219 67.558594 40.273438 67.613281 C 40.09375 67.808594 39.914062 68.003906 39.734375 68.195312 C 39.695312 68.238281 39.65625 68.28125 39.617188 68.324219 C 39.539062 68.402344 39.464844 68.484375 39.390625 68.5625 C 39.230469 68.734375 39.078125 68.910156 38.933594 69.09375 C 38.890625 69.144531 38.847656 69.195312 38.804688 69.25 C 38.753906 69.25 38.707031 69.25 38.65625 69.25 C 38.640625 69.289062 38.621094 69.332031 38.597656 69.378906 C 38.507812 69.542969 38.414062 69.660156 38.28125 69.796875 C 38.234375 69.84375 38.1875 69.890625 38.140625 69.941406 C 38.089844 69.996094 38.039062 70.046875 37.988281 70.097656 C 37.882812 70.210938 37.777344 70.320312 37.671875 70.433594 C 37.589844 70.515625 37.589844 70.515625 37.507812 70.601562 C 37.265625 70.851562 37.03125 71.105469 36.792969 71.359375 C 36.746094 71.40625 36.703125 71.453125 36.65625 71.5 C 36.429688 71.742188 36.203125 71.984375 35.976562 72.226562 C 35.933594 72.273438 35.886719 72.320312 35.839844 72.371094 C 35.757812 72.460938 35.671875 72.550781 35.585938 72.644531 C 35.382812 72.859375 35.179688 73.074219 34.964844 73.28125 C 34.800781 73.449219 34.640625 73.613281 34.488281 73.792969 C 34.21875 74.109375 33.921875 74.398438 33.625 74.6875 C 33.464844 74.84375 33.320312 75.007812 33.171875 75.175781 C 32.859375 75.539062 32.519531 75.867188 32.175781 76.203125 C 32.03125 76.347656 31.886719 76.492188 31.742188 76.636719 C 31.691406 76.683594 31.644531 76.730469 31.59375 76.78125 C 31.328125 77.054688 31.171875 77.246094 31.179688 77.644531 C 31.183594 77.726562 31.183594 77.726562 31.191406 77.808594 C 31.191406 77.867188 31.195312 77.929688 31.199219 77.988281 C 31.203125 78.128906 31.210938 78.269531 31.21875 78.410156 C 31.230469 78.652344 31.242188 78.894531 31.25 79.132812 C 31.332031 81.035156 31.4375 82.847656 32.199219 84.617188 C 32.25 84.75 32.25 84.75 32.25 84.894531 C 32.738281 84.820312 33.0625 84.675781 33.449219 84.382812 C 34.050781 83.949219 34.675781 83.632812 35.34375 83.324219 C 35.453125 83.273438 35.5625 83.222656 35.667969 83.171875 C 35.828125 83.09375 35.988281 83.019531 36.148438 82.945312 C 37 82.542969 37.839844 82.121094 38.664062 81.660156 C 38.738281 81.617188 38.816406 81.574219 38.894531 81.53125 C 41.5625 80.03125 44.105469 78.328125 46.578125 76.535156 C 46.855469 76.335938 47.132812 76.132812 47.414062 75.933594 C 47.46875 75.894531 47.523438 75.855469 47.578125 75.816406 C 47.820312 75.640625 48.0625 75.46875 48.304688 75.296875 C 48.949219 74.847656 49.574219 74.371094 50.199219 73.894531 C 50.585938 73.601562 50.972656 73.3125 51.363281 73.023438 C 51.832031 72.675781 52.296875 72.324219 52.761719 71.96875 C 52.941406 71.828125 53.125 71.6875 53.308594 71.550781 C 53.386719 71.488281 53.386719 71.488281 53.46875 71.425781 C 53.574219 71.347656 53.679688 71.269531 53.78125 71.191406 C 53.933594 71.074219 54.085938 70.957031 54.238281 70.84375 C 54.324219 70.777344 54.324219 70.777344 54.414062 70.707031 C 54.859375 70.359375 55.265625 69.988281 55.660156 69.589844 C 55.722656 69.527344 55.78125 69.464844 55.84375 69.402344 C 56.203125 69.042969 56.539062 68.679688 56.851562 68.28125 C 57.003906 68.089844 57.164062 67.90625 57.328125 67.722656 C 58.03125 66.921875 58.59375 66.085938 59.046875 65.121094 C 59.113281 64.976562 59.183594 64.835938 59.253906 64.691406 C 59.503906 64.171875 59.683594 63.660156 59.808594 63.097656 C 59.820312 63.039062 59.832031 62.984375 59.84375 62.925781 C 59.949219 62.398438 59.917969 61.902344 59.710938 61.398438 C 59.6875 61.339844 59.664062 61.28125 59.640625 61.21875 C 59.417969 60.832031 58.988281 60.726562 58.59375 60.570312 C 57.863281 60.269531 57.296875 59.921875 56.714844 59.386719 C 56.597656 59.28125 56.476562 59.179688 56.351562 59.082031 C 56.132812 58.800781 56.070312 58.519531 56.058594 58.164062 C 56.144531 57.875 56.238281 57.761719 56.472656 57.566406 C 56.976562 57.304688 57.476562 57.269531 58.035156 57.269531 C 58.136719 57.269531 58.136719 57.269531 58.242188 57.269531 C 58.710938 57.277344 59.117188 57.34375 59.558594 57.507812 C 59.777344 57.589844 59.988281 57.636719 60.214844 57.679688 C 60.941406 57.859375 61.472656 58.308594 62.007812 58.808594 C 62.175781 58.96875 62.175781 58.96875 62.375 59.117188 C 62.457031 59.183594 62.457031 59.183594 62.535156 59.253906 C 62.535156 59.300781 62.535156 59.347656 62.535156 59.398438 C 62.585938 59.398438 62.632812 59.398438 62.683594 59.398438 C 62.871094 59.574219 63.03125 59.777344 63.191406 59.976562 C 63.238281 60.027344 63.28125 60.082031 63.328125 60.136719 C 63.734375 60.660156 63.894531 61.226562 64.066406 61.859375 C 64.082031 61.921875 64.101562 61.980469 64.121094 62.042969 C 64.164062 62.199219 64.191406 62.351562 64.210938 62.511719 C 64.222656 62.578125 64.230469 62.644531 64.242188 62.714844 C 64.328125 63.929688 63.710938 65.550781 62.949219 66.488281 C 62.828125 66.621094 62.703125 66.753906 62.578125 66.882812 C 62.394531 67.074219 62.226562 67.273438 62.0625 67.476562 C 61.789062 67.816406 61.492188 68.121094 61.179688 68.425781 C 60.976562 68.628906 60.789062 68.84375 60.605469 69.066406 C 60.5 69.175781 60.5 69.175781 60.28125 69.25 C 60.261719 69.289062 60.242188 69.332031 60.21875 69.371094 C 60.097656 69.609375 59.90625 69.769531 59.707031 69.945312 C 59.648438 70 59.648438 70 59.589844 70.054688 C 59.394531 70.230469 59.214844 70.378906 58.96875 70.480469 C 58.96875 70.527344 58.96875 70.574219 58.96875 70.625 C 58.859375 70.722656 58.746094 70.816406 58.628906 70.90625 C 58.304688 71.164062 57.996094 71.429688 57.695312 71.710938 C 57.351562 72.03125 56.996094 72.339844 56.625 72.632812 C 56.441406 72.78125 56.257812 72.933594 56.078125 73.089844 C 55.324219 73.730469 54.539062 74.316406 53.734375 74.890625 C 53.386719 75.136719 53.046875 75.386719 52.703125 75.640625 C 52.128906 76.066406 51.542969 76.476562 50.949219 76.875 C 50.644531 77.085938 50.339844 77.296875 50.039062 77.515625 C 49.964844 77.570312 49.964844 77.570312 49.886719 77.628906 C 49.847656 77.65625 49.8125 77.683594 49.769531 77.714844 C 49.472656 77.933594 49.167969 78.144531 48.855469 78.351562 C 48.757812 78.414062 48.664062 78.476562 48.566406 78.539062 C 48.519531 78.574219 48.46875 78.605469 48.417969 78.636719 C 48.171875 78.800781 47.925781 78.964844 47.679688 79.128906 C 47.527344 79.230469 47.378906 79.328125 47.226562 79.429688 C 47.125 79.496094 47.027344 79.5625 46.925781 79.628906 C 46.320312 80.03125 45.714844 80.429688 45.101562 80.824219 C 44.488281 81.21875 43.878906 81.617188 43.265625 82.015625 C 43.207031 82.054688 43.148438 82.09375 43.085938 82.132812 C 41.910156 82.902344 40.738281 83.679688 39.597656 84.496094 C 39.21875 84.769531 38.828125 85.027344 38.4375 85.28125 C 38.230469 85.417969 38.027344 85.558594 37.820312 85.699219 C 36.503906 86.609375 34.832031 87.265625 33.199219 87.140625 C 32.433594 86.992188 31.730469 86.597656 31.277344 85.957031 C 31.210938 85.847656 31.148438 85.734375 31.085938 85.617188 C 31.054688 85.558594 31.023438 85.5 30.988281 85.4375 C 30.1875 83.8125 30.183594 81.890625 30.125 80.117188 C 30.121094 79.949219 30.113281 79.777344 30.109375 79.605469 C 30.09375 79.195312 30.082031 78.785156 30.066406 78.375 C 29.945312 78.496094 29.820312 78.617188 29.699219 78.738281 C 29.648438 78.789062 29.648438 78.789062 29.597656 78.839844 C 29.394531 79.035156 29.207031 79.238281 29.019531 79.453125 C 28.753906 79.757812 28.472656 80.046875 28.1875 80.332031 C 28.132812 80.382812 28.082031 80.433594 28.027344 80.488281 C 27.917969 80.597656 27.808594 80.707031 27.699219 80.816406 C 27.53125 80.984375 27.363281 81.152344 27.195312 81.320312 C 27.089844 81.425781 26.984375 81.53125 26.875 81.640625 C 26.824219 81.691406 26.777344 81.742188 26.722656 81.792969 C 26.675781 81.839844 26.632812 81.882812 26.582031 81.933594 C 26.542969 81.972656 26.5 82.011719 26.460938 82.054688 C 26.355469 82.140625 26.355469 82.140625 26.207031 82.140625 C 26.191406 82.183594 26.175781 82.222656 26.160156 82.265625 C 26.03125 82.484375 25.867188 82.621094 25.675781 82.789062 C 25.285156 83.136719 24.914062 83.5 24.546875 83.875 C 24.449219 83.976562 24.347656 84.074219 24.242188 84.171875 C 24.195312 84.171875 24.148438 84.171875 24.097656 84.171875 C 24.074219 84.242188 24.050781 84.3125 24.023438 84.386719 C 23.910156 84.5 23.910156 84.5 23.765625 84.617188 C 23.550781 84.800781 23.347656 84.984375 23.152344 85.183594 C 22.917969 85.421875 22.671875 85.640625 22.417969 85.855469 C 22.28125 85.976562 22.152344 86.105469 22.023438 86.234375 C 21.859375 86.402344 21.691406 86.558594 21.511719 86.710938 C 21.214844 86.964844 20.925781 87.234375 20.640625 87.503906 C 20.316406 87.804688 19.988281 88.105469 19.652344 88.394531 C 19.46875 88.550781 19.289062 88.714844 19.109375 88.878906 C 18.835938 89.128906 18.558594 89.375 18.273438 89.617188 C 18.101562 89.769531 17.933594 89.921875 17.765625 90.074219 C 17.5 90.308594 17.234375 90.542969 16.964844 90.777344 C 16.796875 90.921875 16.632812 91.074219 16.46875 91.222656 C 16.222656 91.445312 15.96875 91.65625 15.710938 91.863281 C 15.269531 92.21875 14.859375 92.605469 14.445312 92.992188 C 14.222656 93.203125 13.992188 93.40625 13.761719 93.605469 C 13.453125 93.871094 13.152344 94.148438 12.851562 94.425781 C 12.675781 94.585938 12.5 94.746094 12.320312 94.910156 C 11.277344 95.859375 11.277344 95.859375 10.265625 96.847656 C 10.007812 97.105469 9.746094 97.347656 9.464844 97.585938 C 9.019531 97.980469 8.609375 98.410156 8.21875 98.859375 C 8.011719 99.101562 7.792969 99.332031 7.574219 99.566406 C 7.378906 99.78125 7.1875 99.996094 7 100.214844 C 6.4375 100.84375 5.835938 100.957031 5.007812 101.035156 C 4.492188 101.0625 4.03125 101.054688 3.609375 100.734375 C 3.328125 100.441406 3.269531 100.230469 3.253906 99.835938 C 3.265625 99.382812 3.308594 98.992188 3.636719 98.65625 C 3.828125 98.5 4.019531 98.359375 4.222656 98.222656 C 4.292969 98.171875 4.363281 98.125 4.433594 98.074219 C 4.589844 97.96875 4.746094 97.859375 4.902344 97.753906 C 5.375 97.429688 5.839844 97.089844 6.304688 96.753906 C 6.421875 96.671875 6.539062 96.585938 6.652344 96.503906 C 7.371094 95.988281 8.070312 95.457031 8.753906 94.898438 C 9.019531 94.679688 9.289062 94.46875 9.558594 94.257812 C 9.921875 93.976562 10.277344 93.691406 10.632812 93.402344 C 10.890625 93.191406 11.148438 92.980469 11.40625 92.773438 C 11.480469 92.710938 11.480469 92.710938 11.558594 92.652344 C 11.804688 92.449219 12.054688 92.25 12.300781 92.050781 C 13.21875 91.308594 14.132812 90.566406 15.03125 89.808594 C 15.335938 89.550781 15.648438 89.296875 15.957031 89.046875 C 16.183594 88.859375 16.410156 88.671875 16.636719 88.480469 C 16.925781 88.234375 17.214844 87.992188 17.507812 87.753906 C 18.554688 86.90625 19.578125 86.03125 20.574219 85.125 C 20.722656 84.988281 20.875 84.855469 21.03125 84.722656 C 21.332031 84.460938 21.625 84.191406 21.917969 83.917969 C 22.15625 83.703125 22.394531 83.488281 22.632812 83.273438 C 23.285156 82.691406 23.929688 82.101562 24.542969 81.476562 C 24.667969 81.359375 24.789062 81.25 24.921875 81.140625 C 25.410156 80.71875 25.859375 80.253906 26.316406 79.800781 C 26.417969 79.699219 26.519531 79.597656 26.621094 79.496094 C 26.832031 79.289062 27.042969 79.078125 27.253906 78.867188 C 27.523438 78.597656 27.796875 78.328125 28.066406 78.058594 C 28.277344 77.847656 28.484375 77.640625 28.695312 77.433594 C 28.792969 77.332031 28.894531 77.234375 28.996094 77.136719 C 29.132812 76.996094 29.273438 76.855469 29.414062 76.71875 C 29.472656 76.65625 29.472656 76.65625 29.539062 76.59375 C 29.695312 76.4375 29.84375 76.28125 29.976562 76.101562 C 30.019531 76.042969 30.019531 76.042969 30.066406 75.984375 C 30.117188 75.984375 30.164062 75.984375 30.214844 75.984375 C 30.210938 75.914062 30.210938 75.839844 30.210938 75.765625 C 30.207031 75.070312 30.207031 74.378906 30.207031 73.683594 C 30.203125 73.328125 30.203125 72.96875 30.203125 72.613281 C 30.195312 70.785156 30.226562 68.972656 30.359375 67.148438 C 30.363281 67.070312 30.371094 66.992188 30.375 66.914062 C 30.40625 66.480469 30.445312 66.046875 30.484375 65.613281 C 30.492188 65.550781 30.496094 65.484375 30.503906 65.421875 C 30.9375 60.90625 31.917969 56.460938 33.34375 52.152344 C 33.371094 52.074219 33.371094 52.074219 33.394531 51.996094 C 33.976562 50.25 34.664062 48.554688 35.382812 46.867188 C 35.414062 46.789062 35.414062 46.789062 35.449219 46.710938 C 36.542969 44.128906 37.792969 41.691406 39.3125 39.332031 C 39.355469 39.265625 39.355469 39.265625 39.402344 39.195312 C 40.074219 38.152344 40.824219 37.164062 41.609375 36.203125 C 41.785156 35.988281 41.957031 35.765625 42.128906 35.546875 C 42.417969 35.179688 42.714844 34.816406 43.011719 34.453125 C 43.121094 34.324219 43.226562 34.191406 43.335938 34.0625 C 43.65625 33.667969 43.984375 33.285156 44.328125 32.910156 C 44.464844 32.757812 44.601562 32.605469 44.738281 32.449219 C 44.820312 32.355469 44.90625 32.257812 44.992188 32.160156 C 45.054688 32.089844 45.054688 32.089844 45.117188 32.019531 C 45.628906 31.441406 46.175781 30.902344 46.722656 30.359375 C 46.890625 30.191406 47.054688 30.027344 47.222656 29.859375 C 47.332031 29.75 47.4375 29.644531 47.546875 29.535156 C 47.597656 29.488281 47.644531 29.4375 47.695312 29.386719 C 48.019531 29.066406 48.355469 28.761719 48.703125 28.46875 C 48.742188 28.433594 48.78125 28.402344 48.820312 28.367188 C 50.640625 26.8125 52.554688 25.335938 54.746094 24.339844 C 54.832031 24.300781 54.917969 24.261719 55.007812 24.21875 C 58.304688 22.765625 62.925781 22.355469 65.859375 24.839844 Z M 48.816406 30.109375 C 48.644531 30.257812 48.464844 30.398438 48.285156 30.539062 C 47.949219 30.8125 47.648438 31.105469 47.347656 31.414062 C 47.191406 31.566406 47.035156 31.707031 46.871094 31.84375 C 46.621094 32.054688 46.410156 32.289062 46.199219 32.535156 C 46.003906 32.761719 45.789062 32.964844 45.574219 33.167969 C 45.210938 33.523438 44.886719 33.890625 44.566406 34.285156 C 44.425781 34.460938 44.277344 34.625 44.128906 34.792969 C 43.738281 35.222656 43.382812 35.683594 43.027344 36.144531 C 42.988281 36.195312 42.949219 36.242188 42.910156 36.292969 C 41.523438 38.070312 40.265625 39.941406 39.09375 41.867188 C 39.035156 41.964844 39.035156 41.964844 38.976562 42.0625 C 35.785156 47.332031 33.660156 53 31.355469 65.757812 C 31.347656 65.8125 31.34375 65.871094 31.339844 65.929688 C 31.296875 66.359375 31.261719 66.789062 31.230469 67.21875 C 31.222656 67.347656 31.222656 67.347656 31.214844 67.480469 C 31.097656 69.089844 31.066406 70.691406 31.078125 72.304688 C 31.078125 72.605469 31.078125 72.910156 31.078125 73.210938 C 31.082031 73.796875 31.082031 74.382812 31.085938 74.972656 C 31.167969 74.902344 31.25 74.832031 31.332031 74.761719 C 31.378906 74.726562 31.421875 74.6875 31.46875 74.648438 C 31.621094 74.515625 31.75 74.375 31.882812 74.222656 C 32.1875 73.882812 32.496094 73.550781 32.8125 73.21875 C 32.914062 73.113281 33.015625 73.003906 33.117188 72.898438 C 33.191406 72.816406 33.191406 72.816406 33.269531 72.738281 C 33.917969 72.050781 34.5625 71.359375 35.203125 70.667969 C 35.382812 70.472656 35.5625 70.28125 35.742188 70.085938 C 35.777344 70.046875 35.8125 70.007812 35.847656 69.96875 C 36.042969 69.761719 36.234375 69.554688 36.429688 69.347656 C 36.792969 68.957031 37.15625 68.570312 37.503906 68.171875 C 37.726562 67.921875 37.953125 67.675781 38.179688 67.433594 C 38.460938 67.132812 38.734375 66.832031 39.007812 66.527344 C 39.121094 66.402344 39.238281 66.273438 39.355469 66.148438 C 39.414062 66.085938 39.472656 66.019531 39.535156 65.953125 C 39.617188 65.863281 39.617188 65.863281 39.703125 65.773438 C 39.839844 65.640625 39.839844 65.640625 39.824219 65.480469 C 39.871094 65.480469 39.917969 65.480469 39.96875 65.480469 C 40.066406 65.375 40.15625 65.261719 40.246094 65.148438 C 40.519531 64.804688 40.804688 64.484375 41.105469 64.164062 C 41.1875 64.078125 41.269531 63.992188 41.351562 63.902344 C 41.390625 63.863281 41.429688 63.820312 41.46875 63.78125 C 41.746094 63.480469 42.011719 63.171875 42.277344 62.863281 C 42.351562 62.773438 42.425781 62.6875 42.5 62.601562 C 42.535156 62.558594 42.574219 62.515625 42.613281 62.46875 C 42.859375 62.183594 43.109375 61.90625 43.367188 61.628906 C 43.675781 61.296875 43.964844 60.953125 44.25 60.601562 C 44.40625 60.414062 44.570312 60.230469 44.738281 60.050781 C 44.964844 59.800781 45.179688 59.550781 45.390625 59.289062 C 45.605469 59.027344 45.820312 58.777344 46.046875 58.527344 C 46.335938 58.214844 46.601562 57.890625 46.871094 57.5625 C 47.015625 57.382812 47.167969 57.214844 47.320312 57.042969 C 47.585938 56.75 47.835938 56.445312 48.085938 56.140625 C 48.289062 55.894531 48.496094 55.652344 48.703125 55.414062 C 49.019531 55.050781 49.328125 54.683594 49.632812 54.308594 C 49.8125 54.089844 50 53.871094 50.1875 53.652344 C 50.464844 53.332031 50.730469 53.003906 50.988281 52.667969 C 51.316406 52.25 51.65625 51.851562 52.007812 51.453125 C 52.277344 51.148438 52.539062 50.835938 52.789062 50.515625 C 52.9375 50.332031 53.082031 50.152344 53.230469 49.972656 C 53.835938 49.238281 54.441406 48.503906 55.027344 47.753906 C 55.28125 47.433594 55.539062 47.117188 55.796875 46.800781 C 56.15625 46.367188 56.5 45.925781 56.832031 45.476562 C 57.003906 45.242188 57.179688 45.015625 57.371094 44.796875 C 57.734375 44.40625 57.734375 44.40625 57.890625 43.917969 C 57.855469 43.738281 57.855469 43.738281 57.789062 43.566406 C 57.691406 43.269531 57.71875 42.972656 57.730469 42.664062 C 57.804688 42.640625 57.875 42.617188 57.949219 42.59375 C 58.097656 42.683594 58.246094 42.78125 58.386719 42.882812 C 58.484375 42.929688 58.582031 42.980469 58.679688 43.027344 C 61.5 39.511719 64.621094 35.015625 64.195312 30.3125 C 64.042969 29.019531 63.527344 27.6875 62.484375 26.847656 C 61.671875 26.261719 60.773438 25.914062 59.769531 25.785156 C 59.710938 25.777344 59.648438 25.769531 59.585938 25.761719 C 55.457031 25.304688 51.808594 27.492188 48.816406 30.109375 Z M 91.65625 47.953125 C 91.679688 48.292969 91.679688 48.292969 91.835938 48.582031 C 92.003906 48.828125 92.035156 49.085938 92.089844 49.378906 C 92.113281 49.503906 92.140625 49.628906 92.164062 49.753906 C 92.175781 49.816406 92.191406 49.878906 92.203125 49.945312 C 92.246094 50.15625 92.300781 50.363281 92.351562 50.574219 C 92.515625 51.210938 92.601562 51.847656 92.667969 52.5 C 92.710938 52.886719 92.75 53.199219 92.96875 53.53125 C 93.144531 53.675781 93.144531 53.675781 93.332031 53.746094 C 93.40625 53.710938 93.40625 53.710938 93.476562 53.675781 C 93.429688 53.601562 93.382812 53.53125 93.332031 53.457031 C 93.296875 53.277344 93.296875 53.277344 93.269531 53.0625 C 93.257812 52.980469 93.25 52.902344 93.238281 52.820312 C 93.226562 52.734375 93.214844 52.648438 93.203125 52.5625 C 92.976562 50.9375 92.484375 49.414062 91.730469 47.953125 C 91.707031 47.953125 91.683594 47.953125 91.65625 47.953125 Z M 74.554688 50.46875 C 73.648438 51.289062 73.648438 51.289062 73.09375 52.226562 C 73.21875 52.242188 73.21875 52.242188 73.347656 52.261719 C 74.539062 52.433594 75.453125 52.855469 76.441406 53.53125 C 76.722656 52.492188 76.652344 51.421875 76.367188 50.394531 C 76.296875 50.132812 76.257812 49.886719 76.222656 49.617188 C 75.597656 49.617188 74.976562 50.058594 74.554688 50.46875 Z M 74.554688 50.46875 "/>
<path style=" stroke:none;fill-rule:nonzero;fill:rgb(0%,0%,0%);fill-opacity:1;" d="M 86.34375 82.9375 C 86.847656 83.171875 87.199219 83.558594 87.582031 83.953125 C 87.644531 84.011719 87.710938 84.074219 87.777344 84.132812 C 88.082031 84.460938 88.308594 84.839844 88.53125 85.226562 C 88.824219 85.730469 89.121094 86.171875 89.523438 86.597656 C 90.050781 87.160156 90.476562 87.785156 90.875 88.4375 C 90.929688 88.523438 90.929688 88.523438 90.980469 88.613281 C 91.507812 89.492188 91.808594 90.390625 92.042969 91.378906 C 92.070312 91.480469 92.09375 91.585938 92.121094 91.6875 C 92.273438 92.304688 92.398438 92.894531 92.402344 93.53125 C 92.40625 93.582031 92.40625 93.632812 92.410156 93.6875 C 92.414062 94.4375 92.109375 95.054688 91.753906 95.699219 C 91.71875 95.769531 91.683594 95.839844 91.644531 95.910156 C 91.015625 97.0625 89.898438 97.449219 88.691406 97.820312 C 87.53125 98.148438 86.386719 98.132812 85.25 97.714844 C 85.1875 97.691406 85.121094 97.667969 85.054688 97.644531 C 83.761719 97.164062 82.511719 96.59375 81.320312 95.90625 C 81.335938 95.972656 81.351562 96.039062 81.367188 96.105469 C 81.679688 97.523438 81.738281 99.304688 80.9375 100.582031 C 80.136719 101.691406 79.339844 102.363281 77.972656 102.640625 C 77.703125 102.683594 77.441406 102.703125 77.171875 102.714844 C 77.078125 102.71875 76.984375 102.722656 76.890625 102.726562 C 75.382812 102.765625 73.808594 102.476562 72.582031 101.554688 C 72.535156 101.507812 72.488281 101.460938 72.4375 101.410156 C 72.449219 101.628906 72.460938 101.851562 72.46875 102.070312 C 72.472656 102.132812 72.476562 102.195312 72.480469 102.257812 C 72.492188 102.511719 72.507812 102.761719 72.546875 103.011719 C 72.78125 104.398438 72.359375 105.617188 71.582031 106.761719 C 70.894531 107.652344 69.523438 108.433594 68.40625 108.628906 C 66.4375 108.808594 65.113281 108.386719 63.554688 107.203125 C 63.546875 107.269531 63.539062 107.332031 63.53125 107.398438 C 63.378906 108.164062 62.835938 108.769531 62.214844 109.214844 C 61.34375 109.765625 60.484375 109.878906 59.480469 109.957031 C 59.503906 109.996094 59.527344 110.035156 59.550781 110.074219 C 61.511719 113.242188 62.917969 116.679688 62.058594 120.429688 C 61.816406 121.425781 61.449219 122.359375 61.007812 123.285156 C 60.976562 123.347656 60.949219 123.414062 60.917969 123.480469 C 60.058594 125.277344 58.875 126.925781 57.660156 128.5 C 57.605469 128.566406 57.605469 128.566406 57.554688 128.636719 C 57.324219 128.933594 57.09375 129.222656 56.859375 129.515625 C 56.820312 129.5625 56.785156 129.605469 56.746094 129.652344 C 56.289062 130.21875 55.828125 130.78125 55.347656 131.328125 C 55.058594 131.660156 54.78125 132 54.511719 132.347656 C 54.46875 132.390625 54.425781 132.4375 54.382812 132.484375 C 54.335938 132.484375 54.289062 132.484375 54.238281 132.484375 C 54.222656 132.523438 54.207031 132.5625 54.191406 132.601562 C 54.054688 132.839844 53.875 133.027344 53.6875 133.222656 C 53.648438 133.265625 53.609375 133.304688 53.570312 133.347656 C 53.292969 133.640625 53.015625 133.925781 52.726562 134.203125 C 52.589844 134.339844 52.464844 134.480469 52.339844 134.625 C 52.03125 134.980469 51.695312 135.3125 51.363281 135.644531 C 51.257812 135.75 51.152344 135.851562 51.046875 135.957031 C 50.707031 136.296875 50.363281 136.628906 49.992188 136.941406 C 49.859375 137.054688 49.738281 137.175781 49.613281 137.300781 C 49.347656 137.570312 49.066406 137.816406 48.777344 138.0625 C 48.703125 138.128906 48.625 138.195312 48.550781 138.257812 C 48.042969 138.695312 47.527344 139.117188 46.996094 139.527344 C 46.820312 139.664062 46.648438 139.800781 46.476562 139.941406 C 45.121094 141.039062 43.660156 142.03125 42.152344 142.914062 C 42.074219 142.960938 42.074219 142.960938 41.996094 143.007812 C 36.757812 146.070312 30.972656 147.996094 24.898438 148.421875 C 24.8125 148.425781 24.8125 148.425781 24.722656 148.433594 C 22.335938 148.597656 19.90625 148.527344 17.546875 148.128906 C 17.460938 148.117188 17.460938 148.117188 17.371094 148.101562 C 15.929688 147.855469 14.53125 147.390625 13.25 146.683594 C 13.175781 146.640625 13.097656 146.601562 13.019531 146.5625 C 11.03125 145.46875 9.582031 143.71875 8.925781 141.554688 C 8.347656 139.488281 8.527344 137.324219 8.984375 135.257812 C 9.007812 135.148438 9.007812 135.148438 9.03125 135.035156 C 9.046875 134.96875 9.0625 134.902344 9.078125 134.835938 C 9.109375 134.597656 9.074219 134.441406 8.945312 134.242188 C 8.847656 133.992188 8.890625 133.753906 8.953125 133.5 C 9.003906 133.425781 9.050781 133.355469 9.101562 133.28125 C 9.148438 133.28125 9.195312 133.28125 9.246094 133.28125 C 9.246094 133.234375 9.246094 133.1875 9.246094 133.136719 C 9.328125 133.078125 9.328125 133.078125 9.414062 133.019531 C 9.675781 132.789062 9.730469 132.566406 9.832031 132.234375 C 10.675781 129.699219 11.882812 127.25 13.25 124.953125 C 13.324219 124.828125 13.394531 124.703125 13.46875 124.578125 C 13.597656 124.359375 13.726562 124.140625 13.855469 123.921875 C 13.902344 123.84375 13.949219 123.765625 13.996094 123.683594 C 14.3125 123.152344 14.648438 122.636719 14.996094 122.125 C 15.03125 122.074219 15.066406 122.023438 15.101562 121.96875 C 16.394531 120.074219 17.792969 118.292969 19.335938 116.597656 C 19.457031 116.464844 19.574219 116.332031 19.695312 116.199219 C 20.007812 115.847656 20.324219 115.519531 20.6875 115.214844 C 20.824219 115.097656 20.949219 114.976562 21.078125 114.847656 C 21.34375 114.578125 21.625 114.332031 21.914062 114.085938 C 22.019531 113.996094 22.019531 113.996094 22.125 113.90625 C 24.425781 111.945312 27.296875 109.695312 30.429688 109.449219 C 30.496094 109.445312 30.5625 109.441406 30.632812 109.433594 C 31.769531 109.390625 32.992188 109.707031 33.851562 110.464844 C 33.898438 110.503906 33.941406 110.539062 33.988281 110.578125 C 34.761719 111.296875 35.085938 112.28125 35.128906 113.316406 C 35.03125 115.933594 33.285156 118.460938 31.835938 120.542969 C 31.726562 120.699219 31.621094 120.855469 31.511719 121.011719 C 30.515625 122.476562 29.484375 123.90625 28.320312 125.242188 C 28.277344 125.292969 28.230469 125.34375 28.183594 125.398438 C 28.0625 125.539062 27.9375 125.679688 27.808594 125.820312 C 27.757812 125.878906 27.703125 125.9375 27.648438 126 C 26.777344 126.964844 25.867188 127.933594 24.824219 128.71875 C 24.753906 128.773438 24.683594 128.828125 24.609375 128.886719 C 23.542969 129.722656 22.417969 130.472656 21.257812 131.179688 C 21.210938 131.210938 21.160156 131.238281 21.113281 131.269531 C 20.425781 131.691406 19.722656 132.085938 19.015625 132.46875 C 18.867188 132.550781 18.722656 132.632812 18.578125 132.710938 C 17.125 133.507812 15.558594 134.222656 13.976562 134.730469 C 13.886719 134.761719 13.886719 134.761719 13.792969 134.789062 C 12.40625 135.226562 11.367188 135.425781 9.972656 134.949219 C 9.96875 134.996094 9.964844 135.042969 9.964844 135.089844 C 9.925781 135.523438 9.871094 135.945312 9.792969 136.375 C 9.472656 138.464844 9.582031 140.84375 10.847656 142.625 C 12.554688 144.910156 15.378906 146.03125 18.128906 146.464844 C 23.929688 147.300781 29.902344 146.488281 39.378906 142.324219 C 39.578125 142.207031 39.777344 142.097656 39.984375 141.988281 C 40.394531 141.765625 40.789062 141.523438 41.183594 141.273438 C 41.253906 141.226562 41.320312 141.183594 41.394531 141.136719 C 43.03125 140.089844 44.59375 138.933594 46.078125 137.671875 C 46.289062 137.492188 46.503906 137.320312 46.722656 137.148438 C 47.03125 136.898438 47.3125 136.632812 47.585938 136.347656 C 47.722656 136.214844 47.859375 136.09375 48.003906 135.96875 C 48.433594 135.597656 48.828125 135.199219 49.226562 134.800781 C 49.363281 134.664062 49.5 134.527344 49.636719 134.390625 C 50.363281 133.6875 50.363281 133.6875 51 132.902344 C 51.035156 132.859375 51.070312 132.820312 51.105469 132.773438 C 51.15625 132.773438 51.203125 132.773438 51.253906 132.773438 C 51.273438 132.730469 51.292969 132.6875 51.3125 132.644531 C 51.394531 132.492188 51.476562 132.382812 51.589844 132.253906 C 51.628906 132.210938 51.667969 132.167969 51.707031 132.125 C 51.746094 132.078125 51.789062 132.035156 51.832031 131.988281 C 52.25 131.511719 52.648438 131.023438 53.039062 130.523438 C 53.15625 130.371094 53.273438 130.222656 53.394531 130.070312 C 53.914062 129.417969 54.40625 128.753906 54.871094 128.0625 C 54.964844 127.921875 55.058594 127.785156 55.152344 127.644531 C 55.574219 127.027344 55.972656 126.394531 56.347656 125.75 C 56.378906 125.699219 56.40625 125.652344 56.433594 125.601562 C 57.441406 123.890625 58.269531 122.0625 58.605469 120.097656 C 58.617188 120.023438 58.632812 119.953125 58.644531 119.878906 C 58.890625 117.703125 58.472656 115.605469 57.515625 113.652344 C 57.488281 113.601562 57.464844 113.554688 57.441406 113.503906 C 57.054688 112.722656 56.601562 112.003906 56.105469 111.289062 C 55.976562 111.105469 55.851562 110.921875 55.726562 110.738281 C 54.875 109.484375 53.902344 108.632812 52.660156 107.777344 C 52.429688 107.589844 52.230469 107.414062 52.160156 107.121094 C 52.167969 106.585938 52.328125 106.234375 52.675781 105.832031 C 52.949219 105.601562 53.164062 105.601562 53.507812 105.601562 C 53.585938 105.601562 53.664062 105.601562 53.742188 105.601562 C 53.945312 105.609375 53.945312 105.609375 54.164062 105.683594 C 54.296875 105.617188 54.296875 105.617188 54.417969 105.511719 C 54.738281 105.261719 54.992188 105.214844 55.402344 105.25 C 55.746094 105.433594 56.078125 105.691406 56.347656 105.972656 C 56.347656 106.019531 56.347656 106.070312 56.347656 106.117188 C 56.398438 106.117188 56.445312 106.117188 56.496094 106.117188 C 56.605469 106.238281 56.707031 106.363281 56.808594 106.488281 C 56.867188 106.5625 56.925781 106.632812 56.984375 106.710938 C 57.066406 106.8125 57.066406 106.8125 57.148438 106.914062 C 57.222656 107 57.296875 107.085938 57.371094 107.171875 C 57.515625 107.347656 57.515625 107.347656 57.515625 107.496094 C 57.710938 107.488281 57.90625 107.480469 58.105469 107.472656 C 58.160156 107.46875 58.214844 107.46875 58.273438 107.46875 C 58.625 107.449219 58.882812 107.398438 59.1875 107.203125 C 59.519531 106.792969 59.65625 106.386719 59.652344 105.867188 C 59.601562 105.519531 59.398438 105.25 59.207031 104.964844 C 58.371094 103.6875 58.371094 103.6875 58.460938 102.929688 C 58.621094 102.367188 59.007812 102.066406 59.496094 101.777344 C 59.996094 101.636719 60.507812 101.605469 60.980469 101.835938 C 61.226562 101.988281 61.226562 101.988281 61.371094 102.132812 C 61.550781 102.140625 61.550781 102.140625 61.753906 102.125 C 62.128906 102.117188 62.324219 102.167969 62.609375 102.425781 C 62.832031 102.667969 62.898438 102.910156 62.976562 103.226562 C 62.992188 103.273438 63.003906 103.320312 63.015625 103.371094 C 63.089844 103.65625 63.144531 103.9375 63.183594 104.230469 C 63.242188 104.566406 63.355469 104.769531 63.578125 105.027344 C 63.71875 105.195312 63.839844 105.375 63.960938 105.558594 C 64.195312 105.890625 64.398438 106.132812 64.792969 106.261719 C 65.722656 106.398438 66.867188 105.957031 67.632812 105.464844 C 68.246094 105.003906 68.410156 104.214844 68.550781 103.5 C 68.632812 102.898438 68.574219 102.316406 68.46875 101.722656 C 68.433594 101.480469 68.421875 101.242188 68.410156 100.996094 C 68.378906 100.535156 68.238281 100.210938 67.996094 99.816406 C 67.957031 99.753906 67.921875 99.691406 67.882812 99.625 C 67.84375 99.5625 67.804688 99.5 67.765625 99.4375 C 67.4375 98.894531 67.335938 98.421875 67.414062 97.789062 C 67.609375 97.246094 68.070312 96.921875 68.566406 96.667969 C 69.019531 96.589844 69.445312 96.613281 69.847656 96.847656 C 69.910156 96.894531 69.972656 96.941406 70.035156 96.992188 C 70.257812 97.066406 70.445312 97.0625 70.675781 97.050781 C 71.042969 97.046875 71.292969 97.101562 71.566406 97.351562 C 71.957031 97.917969 72.101562 98.773438 72.074219 99.453125 C 72.113281 99.472656 72.152344 99.492188 72.195312 99.511719 C 72.46875 99.652344 72.722656 99.824219 72.980469 99.992188 C 73.296875 100.1875 73.585938 100.195312 73.949219 100.207031 C 74.003906 100.210938 74.058594 100.214844 74.117188 100.214844 C 74.234375 100.21875 74.355469 100.222656 74.472656 100.226562 C 74.652344 100.234375 74.828125 100.238281 75.007812 100.246094 C 76.164062 100.304688 76.164062 100.304688 77.171875 99.816406 C 77.238281 99.609375 77.25 99.484375 77.25 99.269531 C 77.25 99.203125 77.25 99.136719 77.246094 99.066406 C 77.246094 98.996094 77.246094 98.921875 77.246094 98.847656 C 77.242188 98.734375 77.242188 98.734375 77.242188 98.621094 C 77.238281 98.460938 77.238281 98.304688 77.234375 98.144531 C 77.230469 97.90625 77.226562 97.664062 77.226562 97.421875 C 77.214844 96.308594 77.214844 96.308594 76.878906 95.253906 C 76.855469 95.199219 76.835938 95.148438 76.8125 95.097656 C 76.75 94.957031 76.679688 94.820312 76.609375 94.683594 C 76.585938 94.632812 76.5625 94.585938 76.535156 94.535156 C 76.359375 94.195312 76.164062 93.875 75.949219 93.554688 C 75.253906 92.507812 75.253906 92.507812 75.351562 91.847656 C 75.5625 91.332031 75.96875 90.988281 76.472656 90.75 C 76.941406 90.597656 77.449219 90.625 77.898438 90.828125 C 77.949219 90.855469 77.996094 90.882812 78.046875 90.910156 C 78.308594 91.039062 78.515625 91.054688 78.804688 91.035156 C 79.046875 91.035156 79.121094 91.042969 79.332031 91.179688 C 79.605469 91.5625 79.828125 91.992188 79.992188 92.429688 C 80.136719 92.65625 80.347656 92.792969 80.558594 92.945312 C 80.609375 92.980469 80.65625 93.011719 80.707031 93.050781 C 82.085938 94.023438 83.535156 94.707031 85.179688 95.109375 C 85.242188 95.125 85.308594 95.140625 85.375 95.15625 C 86.390625 95.441406 86.390625 95.441406 87.363281 95.179688 C 87.714844 94.953125 88.050781 94.710938 88.382812 94.457031 C 88.320312 93.921875 88.222656 93.394531 88.117188 92.863281 C 88.09375 92.730469 88.070312 92.597656 88.046875 92.464844 C 87.667969 90.464844 86.472656 88.289062 85.035156 86.859375 C 84.886719 86.707031 84.886719 86.707031 84.816406 86.488281 C 84.71875 86.4375 84.621094 86.390625 84.523438 86.34375 C 84.164062 85.96875 83.9375 85.503906 83.722656 85.039062 C 83.691406 84.980469 83.664062 84.917969 83.632812 84.855469 C 83.386719 84.316406 83.410156 83.945312 83.59375 83.390625 C 84.175781 82.320312 85.363281 82.539062 86.34375 82.9375 Z M 23.648438 114.34375 C 23.523438 114.441406 23.394531 114.539062 23.269531 114.632812 C 22.425781 115.261719 21.640625 115.953125 20.867188 116.664062 C 20.703125 116.8125 20.539062 116.957031 20.367188 117.097656 C 20.300781 117.15625 20.234375 117.214844 20.167969 117.273438 C 20.167969 117.320312 20.167969 117.367188 20.167969 117.417969 C 20.125 117.4375 20.078125 117.453125 20.035156 117.472656 C 19.855469 117.574219 19.761719 117.671875 19.632812 117.828125 C 19.46875 118.023438 19.304688 118.207031 19.121094 118.382812 C 18.851562 118.648438 18.617188 118.933594 18.378906 119.230469 C 18.226562 119.414062 18.070312 119.597656 17.914062 119.777344 C 17.421875 120.347656 16.96875 120.941406 16.527344 121.546875 C 16.492188 121.59375 16.457031 121.640625 16.421875 121.691406 C 15.371094 123.132812 14.414062 124.632812 13.542969 126.183594 C 13.496094 126.261719 13.453125 126.339844 13.40625 126.421875 C 12.320312 128.359375 11.136719 130.523438 10.628906 132.703125 C 15.101562 132.167969 19.429688 129.710938 22.859375 126.90625 C 22.902344 126.875 22.945312 126.839844 22.988281 126.804688 C 23.40625 126.457031 23.820312 126.109375 24.199219 125.71875 C 24.324219 125.597656 24.453125 125.488281 24.585938 125.375 C 24.976562 125.039062 25.316406 124.65625 25.664062 124.273438 C 25.761719 124.164062 25.863281 124.058594 25.96875 123.953125 C 28.347656 121.464844 30.996094 117.414062 30.972656 113.84375 C 30.953125 113.316406 30.8125 112.914062 30.484375 112.5 C 28.441406 110.929688 25.304688 113.050781 23.648438 114.34375 Z M 23.648438 114.34375 "/>
<path style=" stroke:none;fill-rule:nonzero;fill:rgb(0%,0%,0%);fill-opacity:1;" d="M 91.875 71.566406 C 92.1875 71.746094 92.410156 71.945312 92.644531 72.214844 C 92.8125 72.40625 92.972656 72.582031 93.164062 72.753906 C 93.542969 73.179688 93.738281 73.726562 93.9375 74.257812 C 94.121094 74.742188 94.355469 75.191406 94.601562 75.644531 C 94.988281 76.371094 95.339844 77.105469 95.667969 77.859375 C 95.6875 77.90625 95.707031 77.957031 95.730469 78.007812 C 95.835938 78.25 95.941406 78.496094 96.046875 78.742188 C 96.957031 80.847656 97.96875 82.878906 99.125 84.859375 C 99.226562 85.03125 99.324219 85.207031 99.421875 85.378906 C 99.941406 86.292969 100.535156 87.082031 101.296875 87.8125 C 101.640625 88.148438 101.925781 88.519531 102.214844 88.90625 C 102.457031 89.230469 102.710938 89.546875 102.976562 89.859375 C 103.453125 90.417969 103.851562 90.972656 104.179688 91.632812 C 104.230469 91.730469 104.230469 91.730469 104.28125 91.832031 C 105.183594 93.613281 106.535156 96.542969 105.859375 98.574219 C 105.289062 99.75 105.289062 99.75 104.761719 100.035156 C 104.339844 100.128906 103.988281 100.082031 103.621094 99.851562 C 102.789062 99.222656 102.433594 98.609375 102.1875 97.617188 C 102.140625 97.4375 102.09375 97.261719 102.046875 97.082031 C 101.976562 96.804688 101.90625 96.527344 101.835938 96.25 C 101.488281 94.882812 101.105469 93.742188 100.273438 92.597656 C 100.085938 92.339844 99.921875 92.070312 99.757812 91.796875 C 99.488281 91.359375 99.195312 90.949219 98.886719 90.535156 C 98.332031 89.78125 97.964844 88.992188 97.613281 88.128906 C 97.160156 87.027344 96.53125 85.996094 95.933594 84.96875 C 95.796875 84.726562 95.65625 84.488281 95.519531 84.25 C 94.644531 82.710938 93.726562 81.21875 92.722656 79.761719 C 92.488281 79.421875 92.253906 79.078125 92.023438 78.738281 C 91.980469 78.675781 91.9375 78.613281 91.894531 78.550781 C 91.375 77.792969 90.921875 77.019531 90.507812 76.199219 C 90.25 75.699219 89.964844 75.269531 89.621094 74.824219 C 89.21875 74.269531 89.140625 73.675781 89.035156 73.015625 C 89.015625 72.898438 89.015625 72.898438 88.988281 72.78125 C 88.941406 72.410156 89.078125 72.09375 89.277344 71.78125 C 89.984375 70.886719 90.960938 71.1875 91.875 71.566406 Z M 91.875 71.566406 "/>
<path style=" stroke:none;fill-rule:nonzero;fill:rgb(0%,0%,0%);fill-opacity:1;" d="M 89.632812 63.226562 C 89.84375 63.382812 89.988281 63.523438 90.128906 63.742188 C 90.128906 63.839844 90.128906 63.933594 90.128906 64.03125 C 90.210938 64.039062 90.210938 64.039062 90.292969 64.046875 C 90.492188 64.105469 90.492188 64.105469 90.605469 64.277344 C 90.863281 64.550781 91.136719 64.597656 91.496094 64.683594 C 92.214844 64.867188 92.84375 65.125 93.257812 65.773438 C 93.539062 66.34375 93.664062 66.863281 93.46875 67.476562 C 93.019531 68.300781 92.304688 68.984375 91.554688 69.539062 C 91.296875 69.734375 91.042969 69.941406 90.789062 70.144531 C 90.738281 70.1875 90.6875 70.226562 90.632812 70.269531 C 90.363281 70.492188 90.097656 70.714844 89.84375 70.957031 C 89.527344 71.242188 89.195312 71.492188 88.851562 71.738281 C 88.800781 71.777344 88.75 71.8125 88.695312 71.851562 C 88.34375 72.101562 88 72.25 87.582031 72.363281 C 87.523438 72.378906 87.464844 72.394531 87.402344 72.410156 C 87.101562 72.449219 86.796875 72.453125 86.492188 72.453125 C 86.398438 72.457031 86.398438 72.457031 86.300781 72.457031 C 85.851562 72.460938 85.554688 72.394531 85.191406 72.117188 C 84.964844 71.8125 85.019531 71.402344 85.0625 71.046875 C 85.230469 70.296875 85.675781 69.96875 86.269531 69.539062 C 86.421875 69.425781 86.570312 69.316406 86.722656 69.203125 C 86.792969 69.152344 86.863281 69.097656 86.9375 69.042969 C 87.265625 68.792969 87.570312 68.515625 87.871094 68.234375 C 87.917969 68.191406 87.964844 68.152344 88.011719 68.109375 C 88.382812 67.757812 88.671875 67.347656 88.964844 66.929688 C 88.902344 66.910156 88.839844 66.886719 88.777344 66.867188 C 88.023438 66.597656 87.375 66.273438 86.988281 65.539062 C 86.703125 64.902344 86.617188 64.261719 86.851562 63.597656 C 87 63.285156 87.152344 63.136719 87.460938 62.992188 C 88.246094 62.714844 88.941406 62.820312 89.632812 63.226562 Z M 89.632812 63.226562 "/>
<path style=" stroke:none;fill-rule:nonzero;fill:rgb(0%,0%,0%);fill-opacity:1;" d="M 80.828125 77.179688 C 81.296875 77.542969 81.492188 77.953125 81.566406 78.53125 C 81.597656 79.167969 81.464844 79.640625 81.042969 80.117188 C 80.59375 80.539062 80.183594 80.703125 79.574219 80.71875 C 78.964844 80.703125 78.550781 80.539062 78.105469 80.125 C 77.71875 79.675781 77.546875 79.160156 77.578125 78.570312 C 77.660156 78.042969 77.871094 77.585938 78.261719 77.214844 C 79.113281 76.660156 79.960938 76.617188 80.828125 77.179688 Z M 80.828125 77.179688 "/>
<path style=" stroke:none;fill-rule:nonzero;fill:rgb(0%,0%,0%);fill-opacity:1;" d="M 82.558594 106.84375 C 83.011719 107.242188 83.238281 107.742188 83.285156 108.339844 C 83.285156 108.917969 83.085938 109.378906 82.703125 109.8125 C 82.222656 110.226562 81.742188 110.417969 81.109375 110.386719 C 80.582031 110.316406 80.117188 110.105469 79.757812 109.707031 C 79.363281 109.1875 79.246094 108.691406 79.292969 108.042969 C 79.386719 107.507812 79.691406 107.167969 80.058594 106.785156 C 80.867188 106.253906 81.769531 106.316406 82.558594 106.84375 Z M 82.558594 106.84375 "/>
<path style=" stroke:none;fill-rule:nonzero;fill:rgb(0%,0%,0%);fill-opacity:1;" d="M 56.277344 52.589844 C 56.707031 52.941406 56.96875 53.386719 57.023438 53.941406 C 57.046875 54.597656 56.890625 55.046875 56.460938 55.550781 C 55.945312 55.976562 55.5 56.167969 54.824219 56.132812 C 54.285156 56.058594 53.820312 55.851562 53.476562 55.421875 C 53.414062 55.324219 53.351562 55.226562 53.292969 55.125 C 53.246094 55.046875 53.199219 54.972656 53.15625 54.894531 C 53.015625 54.417969 52.972656 53.855469 53.164062 53.390625 C 53.207031 53.316406 53.246094 53.242188 53.292969 53.167969 C 53.332031 53.09375 53.371094 53.019531 53.410156 52.945312 C 54.125 52.066406 55.351562 51.953125 56.277344 52.589844 Z M 56.277344 52.589844 "/>
<path style=" stroke:none;fill-rule:nonzero;fill:rgb(0%,0%,0%);fill-opacity:1;" d="M 87.277344 103.683594 C 87.71875 104.007812 88.054688 104.414062 88.164062 104.960938 C 88.242188 105.613281 88.09375 106.128906 87.746094 106.683594 C 87.292969 107.121094 86.796875 107.335938 86.164062 107.355469 C 85.617188 107.324219 85.125 107.152344 84.734375 106.761719 C 84.3125 106.246094 84.195312 105.789062 84.203125 105.128906 C 84.265625 104.585938 84.539062 104.144531 84.960938 103.800781 C 85.636719 103.304688 86.539062 103.253906 87.277344 103.683594 Z M 87.277344 103.683594 "/>
</g>
</svg>
